<?xml version="1.0" encoding="UTF-8" standalone="no"?>
<!-- Created with Inkscape (http://www.inkscape.org/) -->

<svg
   width="1080"
   height="1080"
   viewBox="0 0 1080 1080"
   version="1.1"
   id="svg1"
   xml:space="preserve"
   sodipodi:docname="Logo.svg"
   inkscape:version="1.4.2 (f4327f4, 2025-05-13)"
   xmlns:inkscape="http://www.inkscape.org/namespaces/inkscape"
   xmlns:sodipodi="http://sodipodi.sourceforge.net/DTD/sodipodi-0.dtd"
   xmlns="http://www.w3.org/2000/svg"
   xmlns:svg="http://www.w3.org/2000/svg"><sodipodi:namedview
     id="namedview1"
     pagecolor="#ffffff"
     bordercolor="#000000"
     borderopacity="0.25"
     inkscape:showpageshadow="2"
     inkscape:pageopacity="0.0"
     inkscape:pagecheckerboard="0"
     inkscape:deskcolor="#d1d1d1"
     inkscape:document-units="px"
     inkscape:zoom="0.5"
     inkscape:cx="232"
     inkscape:cy="465"
     inkscape:window-width="1920"
     inkscape:window-height="991"
     inkscape:window-x="-9"
     inkscape:window-y="-9"
     inkscape:window-maximized="1"
     inkscape:current-layer="svg1"><inkscape:page
       x="0"
       y="0"
       width="1080"
       height="1080"
       id="page1"
       margin="0"
       bleed="0" /></sodipodi:namedview><defs
     id="defs1" /><g
     inkscape:label="Camada 1"
     inkscape:groupmode="layer"
     id="layer1" /><!-- Monograma grande centralizado --><!-- Espiga topo centralizada --><!-- Nome empilhado --><!-- Linha divisória --><!-- ADVOCACIA --><!-- AGRO destaque --><!-- OAB rodapé --><text
     xml:space="preserve"
     style="text-align:start;writing-mode:lr-tb;direction:ltr;text-anchor:start;fill:#7d5d3b;fill-opacity:1"
     x="534.47394"
     y="958.29895"
     id="text4"><tspan
       sodipodi:role="line"
       id="tspan4"
       x="534.47394"
       y="958.29895" /></text><rect
     style="opacity:0;fill:#000000;fill-rule:evenodd;stroke:#000000"
     id="rect3-8"
     width="709.33881"
     height="867.40869"
     x="503.07471"
     y="309.24548" /><text
     x="537.76343"
     y="683.15918"
     font-family="Georgia, 'Times New Roman', serif"
     font-size="103.337px"
     font-weight="300"
     fill="#f2ebd9"
     letter-spacing="7"
     text-anchor="middle"
     id="text5-4"
     style="stroke-width:2.87045">RAMON BASTOS</text><line
     x1="672.14307"
     y1="745.14728"
     x2="911.50897"
     y2="745.14728"
     stroke="#7c5c3a"
     stroke-width="0.925791"
     id="line6-2"
     style="fill:#b43737;fill-opacity:1;fill-rule:evenodd;stroke:#5a7a68;stroke-opacity:1" /><line
     x1="158.21982"
     y1="745.14758"
     x2="397.58591"
     y2="745.14758"
     stroke="#7c5c3a"
     stroke-width="0.925791"
     id="line6-6-0"
     style="stroke:#5a7a68;stroke-opacity:1" /><text
     x="535.00012"
     y="756.3125"
     font-family="'Courier New', monospace"
     font-size="40.6112px"
     fill="#9a9189"
     letter-spacing="4"
     text-anchor="middle"
     id="text6-9"
     style="fill:#f2ebd9;fill-opacity:1;stroke-width:3.69192;-inkscape-font-specification:'Courier New, monospace, Bold';font-family:'Courier New', monospace;font-weight:bold;font-style:normal;font-stretch:normal;font-variant:normal;font-size:40.6112px;font-variant-ligatures:normal;font-variant-caps:normal;font-variant-numeric:normal;font-variant-east-asian:normal;letter-spacing:4;text-anchor:middle">ADVOCACIA</text><text
     x="535.00012"
     y="851.4823"
     font-family="Georgia, 'Times New Roman', serif"
     font-size="103.374px"
     font-weight="700"
     fill="#7c5c3a"
     letter-spacing="8"
     text-anchor="middle"
     id="text7-7"
     style="fill:#30451a;fill-opacity:1;stroke-width:3.69192">AGRO</text><text
     x="533.24048"
     y="899.15179"
     font-family="'Courier New', monospace"
     font-size="23.1516px"
     fill="rgba(154,145,137,0.55)"
     letter-spacing="2.5"
     text-anchor="middle"
     id="text8-3"
     style="font-style:italic;font-variant:normal;font-weight:bold;font-stretch:normal;font-size:41.5183px;font-family:'Courier New', monospace;-inkscape-font-specification:'Courier New, monospace, Bold Italic';font-variant-ligatures:normal;font-variant-caps:normal;font-variant-numeric:normal;font-variant-east-asian:normal;letter-spacing:4.48331;text-anchor:middle;fill:#f2ebd9;fill-opacity:1;stroke-width:4.15183">OAB/MA 29.564-A · OAB/TO 5.956</text><path
     id="path1"
     d="m 719.16655,481.7321 c -18.51329,-0.90115 -25.86476,-2.48732 -38.92021,-8.40089 -17.85449,-8.09348 -43.62498,-28.70123 -65.68569,-52.54323 l -6.59109,-7.12207 V 263.03132 c 0,-98.34522 -0.2943,-153.99473 -0.84314,-160.30902 -0.46189,-5.322941 -1.55429,-11.842852 -2.43827,-14.499071 -39.68059,-49.482084 -53.16545,-30.569622 56.04258,-30.208743 96.10861,0.351433 95.68337,0.335701 116.90829,4.183643 16.6563,3.016054 35.12349,9.310419 47.54946,16.206941 22.48176,12.481727 37.56596,30.36506 43.46159,51.52251 2.42572,8.71664 2.99862,24.14097 1.22753,33.02127 -4.89331,24.505 -19.94923,43.04821 -45.60555,56.18244 -8.15377,4.17106 -25.65215,10.22834 -34.15469,11.82186 -3.06774,0.57383 -5.8705,1.29874 -6.23079,1.60611 -0.3561,0.30737 1.5302,0.81198 4.19366,1.11935 6.73458,0.77001 25.10856,5.45826 35.11511,8.95373 10.21603,3.5689 25.55474,11.09696 33.08218,16.23211 15.23188,10.39199 26.47118,22.64817 34.28141,37.61826 4.66393,8.93694 8.10453,18.84218 10.44436,29.89403 2.02561,9.57687 2.06226,33.63183 0.0618,44.49485 -3.01537,16.39997 -9.9259,33.47551 -19.15531,47.33046 -6.19415,9.29467 -21.6554,25.01799 -31.61377,32.14846 -8.74658,6.26184 -24.43719,14.70258 -34.72236,18.67851 -26.93726,10.40773 -58.40752,14.55572 -96.39872,12.70308 z m 15.54295,-10.85987 c 9.55303,-1.75403 15.69794,-3.9088 26.8388,-9.40798 28.28313,-13.96614 49.14042,-39.06177 59.48319,-71.57845 4.22194,-13.26851 5.47039,-21.45223 5.91553,-38.83201 0.3404,-13.24753 0.16024,-16.78811 -1.31655,-25.6275 -4.19365,-25.09562 -12.56841,-42.42925 -27.75106,-57.42032 -10.92405,-10.7854 -19.92095,-16.30556 -34.73597,-21.31272 -15.13761,-5.11417 -19.69471,-5.58939 -53.93946,-5.6303 l -30.68789,-0.0325 v 105.57324 c 0,97.71473 0.1016,105.91419 1.37416,110.0863 2.43826,7.9823 8.8534,12.96115 19.32288,14.99842 7.02889,1.36378 26.00407,0.92947 35.49637,-0.81616 z m -3.98524,-241.59549 c 11.39431,-1.01548 19.05791,-3.08108 28.29569,-7.62981 8.78847,-4.32736 15.96817,-9.76571 22.75198,-17.23606 8.1171,-8.93694 14.06092,-20.38639 17.55075,-33.80283 2.36496,-9.09325 3.00805,-29.48489 1.24847,-39.72896 -5.9323,-34.607464 -30.48889,-57.633285 -65.91508,-61.812741 -11.86459,-1.401554 -54.79411,-0.69658 -55.79644,0.917919 -0.41371,0.659859 -0.72478,34.688232 -0.73211,80.174452 v 79.02468 l 1.79519,0.35248 c 3.69092,0.72071 41.99737,0.52453 50.81412,-0.25913 z"
     style="fill:#30451a;fill-opacity:1;fill-rule:nonzero;stroke:none;stroke-width:1.04821" /><path
     id="path2"
     d="m 705.24339,477.62207 c -17.13147,-0.89033 -23.93251,-2.45907 -36.00953,-8.29629 -16.52443,-7.98745 -40.36536,-28.33413 -60.77914,-51.86834 l -6.09495,-7.03003 V 261.72354 c 0,-97.08048 -0.27477,-152.0192 -0.78171,-158.25154 -0.42493,-5.253601 -1.43986,-11.693621 -2.25565,-14.310311 -36.71669,-48.84909 -49.19308,-30.17763 51.85237,-29.82406 88.9269,0.34933 88.53178,0.33228 108.17557,4.13111 15.40938,2.97452 32.49506,9.18983 43.99379,15.99939 20.80463,12.32197 34.76137,29.974221 40.21093,50.861921 2.24714,8.60302 2.77963,23.83348 1.13635,32.59837 -4.52622,24.18705 -18.45419,42.49641 -42.19608,55.45843 -7.54228,4.11939 -23.73336,10.0972 -31.60046,11.67339 -2.84141,0.56658 -5.4336,1.28225 -5.76587,1.58577 -0.32909,0.30353 1.41857,0.79875 3.88083,1.10227 6.22808,0.76147 23.23068,5.38673 32.4908,8.84051 9.45181,3.52299 23.64604,10.95345 30.60576,16.02068 14.09518,10.26227 24.49484,22.36059 31.72614,37.13737 4.31322,8.82346 7.49648,18.60009 9.66374,29.51201 1.87226,9.45181 1.90527,33.20115 0.0543,43.92669 -2.78816,16.18682 -9.18556,33.04353 -17.72255,46.71804 -5.73286,9.17705 -20.0389,24.69825 -29.25429,31.73785 -8.09075,6.18122 -22.60979,14.51479 -32.1287,18.43715 -24.92296,10.27612 -54.03986,14.36889 -89.19315,12.54349 z m 14.38167,-10.72128 c 8.84051,-1.73487 14.52757,-3.8606 24.83669,-9.28994 26.16688,-13.78206 45.46561,-38.56019 55.03776,-70.65907 3.9064,-13.09621 5.05872,-21.17525 5.47088,-38.33548 0.3163,-13.07598 0.15016,-16.57448 -1.21942,-25.29784 -3.87657,-24.77386 -11.62653,-41.88404 -25.67591,-56.67785 -10.10891,-10.64993 -18.43289,-16.09949 -32.14148,-21.04213 -14.00253,-5.05019 -18.22097,-5.51986 -49.90876,-5.56139 l -28.39271,-0.0341 v 104.22446 c 0,96.46065 0.0916,104.55246 1.27267,108.67079 2.25459,7.88307 8.18767,12.79589 17.88016,14.80553 6.49859,1.34828 24.05819,0.91909 32.84012,-0.803 z m -3.68594,-238.49981 c 10.54236,-0.99896 17.63522,-3.04162 26.17965,-7.5295 8.13335,-4.26849 14.77678,-9.63925 21.05065,-17.01113 7.51352,-8.82773 13.01315,-20.12729 16.24114,-33.37261 2.18856,-8.97789 2.78283,-29.10839 1.15658,-39.21729 -5.4911,-34.162841 -28.20953,-56.894051 -60.98788,-61.020901 -10.97795,-1.3813 -50.69898,-0.68692 -51.63084,0.90205 -0.3834,0.65817 -0.66989,34.246971 -0.67414,79.151331 v 78.01072 l 1.66032,0.34506 c 3.41117,0.71142 38.85519,0.51972 47.0173,-0.25773 z"
     style="fill:#efdea2;fill-opacity:1;fill-rule:nonzero;stroke:none;stroke-width:1.06499" /><path
     id="path3"
     d="M 673.95178,555.36922 C 589.51702,549.27533 518.20404,507.4701 475.99625,439.3308 c -9.5892,-15.47967 -11.05357,-18.28379 -33.39392,-63.88252 -15.5212,-31.6878 -22.53099,-44.59232 -32.07439,-59.04959 -22.45644,-34.01694 -45.86924,-49.52962 -75.35676,-49.94177 l -8.41131,-0.11609 -0.23323,70.07653 c -0.13738,41.51022 0.10437,75.95634 0.59427,84.49652 1.38129,24.07949 5.14711,35.21612 15.04728,44.52203 8.83624,8.30374 18.01328,12.33048 34.62504,15.19212 5.0502,0.87435 9.49335,1.89355 9.86822,2.26736 0.37382,0.37489 0.56552,1.90209 0.42387,3.38668 l -0.25773,2.70828 -99.11142,0.20022 -99.11036,0.20341 v -7.06836 l 5.80315,-0.96488 c 17.48505,-2.90743 34.13408,-11.46997 42.32175,-21.76952 4.44208,-5.58375 7.53376,-12.30599 9.70954,-21.09643 l 1.77214,-7.17167 0.1949,-161.77986 c 0.20874,-172.540541 0.30459,-167.76512 -3.59009,-177.994371 -2.56237,-6.74354 -5.32497,-10.83311 -10.74578,-15.90034 -9.88419,-9.24414 -22.63429,-14.06963 -46.46776,-17.57238 -2.96282,-0.43665 -3.00435,-0.49523 -3.00435,-4.0523 v -3.60713 l 120.73504,0.31204 c 84.8959,0.22471 122.75745,0.59107 127.54141,1.23965 35.31941,4.78076 54.61069,11.02481 74.06278,23.9666 19.36157,12.88428 32.81989,31.804941 38.58576,54.252861 2.07567,8.07052 2.25885,9.9513 2.18749,22.42236 -0.0703,11.91088 -0.33653,14.58614 -2.13318,21.35843 -15.83857,59.74823 -79.13429,78.17686 -125.11215,83.54762 -5.72008,0.66562 -12.18139,1.21516 -14.34865,1.21516 -5.20781,0 -4.326,0.65284 2.85844,2.11294 20.87918,4.25252 46.52634,17.10272 67.14886,33.64738 8.89376,7.13439 27.49385,25.32234 38.7849,37.92014 4.93305,5.50708 18.29552,21.00379 29.69413,34.44079 39.65501,46.74361 60.13056,69.11697 78.44844,85.72021 36.75823,33.31404 68.67073,51.07812 105.75378,58.87813 13.8907,2.92021 38.344,3.6689 52.41362,1.60601 36.22253,-5.31325 67.91459,-21.53309 93.39561,-47.80434 26.49915,-27.31919 43.473,-62.79303 48.04075,-100.40432 1.6177,-13.32519 1.2482,-21.99104 -1.70612,-39.81263 -3.67316,-22.19444 -3.41968,-35.85617 0.93613,-50.19204 2.68378,-8.83199 8.88627,-20.93349 14.98549,-29.22873 6.37717,-8.67862 21.47456,-23.5555 31.59626,-31.13506 12.08444,-9.04817 11.4976,-8.95233 9.59236,-1.56341 -1.7423,6.75951 -2.03416,19.03249 -1.38878,58.62785 0.28651,17.60966 0.14489,20.45106 -1.36529,27.69408 -3.84356,18.42544 -10.72019,30.1819 -27.13176,46.39002 -5.79889,5.72433 -11.54026,11.95134 -12.75539,13.83212 -1.21841,1.88078 -2.3547,3.27805 -2.52515,3.10765 -0.17037,-0.1704 0.61982,-4.23122 1.7562,-9.02368 2.97452,-12.57117 4.84143,-21.56611 7.21322,-34.74539 4.43032,-24.66097 7.83409,-41.36751 9.67647,-47.52531 3.15776,-10.55407 1.55596,-7.85432 -2.38769,4.02355 -5.90751,17.79284 -9.3485,33.08506 -18.90788,84.04709 -4.0438,21.54907 -8.16213,38.82219 -11.19094,46.93424 l -1.57193,4.2227 5.1375,-5.37502 c 2.82436,-2.95323 7.85006,-9.49761 11.16541,-14.53928 11.44441,-17.40625 22.73123,-24.18705 41.8265,-25.12745 9.11423,-0.44942 26.99435,1.52295 27.95925,3.0821 0.2418,0.39192 -0.1331,0.71141 -0.8403,0.71141 -4.13851,0 -12.0972,5.899 -23.24232,17.22733 -12.05578,12.26445 -19.83978,15.96211 -35.43982,16.85244 -4.73384,0.27051 -9.63925,0.81579 -10.90015,1.21516 -2.0757,0.6571 -2.18752,0.59959 -1.20131,-0.60279 1.78807,-2.17578 14.68092,-12.71815 19.86422,-16.23794 2.64544,-1.79665 7.43367,-4.69662 10.64143,-6.44321 3.20345,-1.74765 5.46661,-3.179 5.0257,-3.18326 -1.85524,-0.007 -18.87066,8.91186 -24.13702,12.65104 -12.97161,9.22284 -26.2968,25.10721 -33.58454,40.04161 -2.43031,4.98416 -6.71904,12.91304 -9.52743,17.61817 -34.95306,58.58738 -97.3382,95.69919 -177.4246,105.55037 -9.13551,1.12783 -40.39091,2.03414 -48.85654,1.42709 z m -4.46871,-32.71871 c -13.70752,-3.17474 -28.19675,-8.46669 -41.98415,-15.33483 -20.13049,-10.02584 -33.96262,-19.4276 -47.37514,-32.18728 -13.46683,-12.81718 -20.70452,-23.36274 -30.43962,-44.35481 -7.15143,-15.41791 -12.68832,-23.98684 -20.53413,-31.77513 -15.01852,-14.90564 -39.94574,-26.57477 -66.02102,-30.91355 l -2.98731,-0.49948 4.18862,5.57417 c 5.00972,6.66473 8.89481,14.24002 13.39653,26.13067 5.44532,14.38485 10.79477,23.8324 17.57558,31.04667 10.34215,11.0035 18.24227,15.36358 34.48767,19.03248 5.50388,1.24392 11.0248,2.64971 12.26445,3.12043 1.23965,0.47392 2.40901,0.86051 2.59965,0.86051 0.70715,0 -14.66389,-20.45957 -20.38396,-27.13175 -3.25782,-3.79883 -10.82459,-11.90236 -16.81943,-18.00583 -10.59988,-10.79477 -10.73726,-10.97369 -4.89258,-6.5348 16.00364,12.16009 26.808,22.99639 41.55176,41.65932 15.91631,20.15606 19.78543,24.67376 27.34795,31.93701 20.73434,19.91004 47.422,34.98714 76.30567,43.10345 11.61907,3.26101 24.34467,6.11093 27.38948,6.12797 1.31953,0.004 -1.23113,-0.82856 -5.67002,-1.85522 z M 387.49748,249.5214 c 44.06833,-5.77866 72.69854,-34.47169 79.91173,-80.09172 1.5272,-9.65523 1.15232,-28.80379 -0.75296,-38.44304 -7.55505,-38.219401 -31.15529,-61.125261 -70.21922,-68.146761 -14.58082,-2.62095 -65.60889,-2.23862 -68.92847,0.51545 -0.98618,0.81899 -1.14806,14.09412 -1.14806,93.627781 0,50.96949 0.24069,92.9121 0.53676,93.2039 1.11824,1.12251 51.16864,0.56978 60.60022,-0.66561 z"
     style="fill:#30451a;fill-opacity:1;fill-rule:nonzero;stroke:none;stroke-width:1.06499" /></svg>
