<?xml version="1.0" encoding="UTF-8" standalone="no"?>
<!-- Created with Inkscape (http://www.inkscape.org/) -->

<svg
   width="1080"
   height="1080"
   viewBox="0 0 1080 1080"
   version="1.1"
   id="svg1"
   xml:space="preserve"
   sodipodi:docname="logoG1.svg"
   inkscape:version="1.4.2 (f4327f4, 2025-05-13)"
   xmlns:inkscape="http://www.inkscape.org/namespaces/inkscape"
   xmlns:sodipodi="http://sodipodi.sourceforge.net/DTD/sodipodi-0.dtd"
   xmlns="http://www.w3.org/2000/svg"
   xmlns:svg="http://www.w3.org/2000/svg"><sodipodi:namedview
     id="namedview1"
     pagecolor="#ffffff"
     bordercolor="#000000"
     borderopacity="0.25"
     inkscape:showpageshadow="2"
     inkscape:pageopacity="0.0"
     inkscape:pagecheckerboard="0"
     inkscape:deskcolor="#d1d1d1"
     inkscape:document-units="px"
     inkscape:zoom="0.5"
     inkscape:cx="232"
     inkscape:cy="465"
     inkscape:window-width="1920"
     inkscape:window-height="991"
     inkscape:window-x="-9"
     inkscape:window-y="-9"
     inkscape:window-maximized="1"
     inkscape:current-layer="svg1"><inkscape:page
       x="0"
       y="0"
       width="1080"
       height="1080"
       id="page1"
       margin="0"
       bleed="0" /></sodipodi:namedview><defs
     id="defs1" /><g
     inkscape:label="Camada 1"
     inkscape:groupmode="layer"
     id="layer1" /><!-- Monograma grande centralizado --><!-- Espiga topo centralizada --><!-- Nome empilhado --><!-- Linha divisória --><!-- ADVOCACIA --><!-- AGRO destaque --><!-- OAB rodapé --><text
     xml:space="preserve"
     style="text-align:start;writing-mode:lr-tb;direction:ltr;text-anchor:start;fill:#7d5d3b;fill-opacity:1"
     x="534.47394"
     y="958.29895"
     id="text4"><tspan
       sodipodi:role="line"
       id="tspan4"
       x="534.47394"
       y="958.29895" /></text><rect
     style="opacity:0;fill:#000000;fill-rule:evenodd;stroke:#000000"
     id="rect3-8"
     width="709.33881"
     height="867.40869"
     x="503.07471"
     y="309.24548" /><path
     id="path1"
     d="m 708.16223,776.61438 c -23.9906,-1.16778 -33.51707,-3.22321 -50.4351,-10.88637 C 634.59024,755.24 601.19532,728.53528 572.60775,697.6394 l -8.54111,-9.22919 V 493.20909 c 0,-127.44152 -0.38138,-199.55543 -1.0926,-207.73784 -0.59853,-6.89778 -2.01412,-15.34666 -3.15964,-18.78875 -51.42044,-64.12178 -68.89491,-39.61392 72.62325,-39.14627 124.54318,0.45541 123.99214,0.43503 151.49663,5.42141 21.58421,3.90837 45.5151,12.065 61.61738,21.00192 29.1332,16.17453 48.68019,39.34881 56.32008,66.76589 3.1434,11.29552 3.8858,31.28328 1.59069,42.79089 -6.34101,31.75501 -25.85136,55.78438 -59.09833,72.8045 -10.56613,5.40511 -33.24156,13.25449 -44.25965,15.31946 -3.97537,0.74359 -7.60734,1.68299 -8.07421,2.08129 -0.46146,0.3983 1.98291,1.05221 5.43438,1.45052 8.72706,0.99782 32.53715,7.07316 45.50421,11.60277 13.23853,4.62479 33.11534,14.38009 42.86983,21.03451 19.73836,13.46656 34.30291,29.34884 44.42388,48.74795 6.0438,11.58102 10.50231,24.41683 13.5344,38.73844 2.62492,12.41027 2.67239,43.5821 0.0801,57.65904 -3.90749,21.25204 -12.86255,43.37953 -24.82255,61.3336 -8.02675,12.04457 -28.06233,32.41978 -40.967,41.65987 -11.33433,8.11444 -31.66713,19.05244 -44.99525,24.20468 -34.90688,13.48696 -75.6879,18.86217 -124.91912,16.46141 z m 20.14147,-14.07287 c 12.37936,-2.27296 20.3423,-5.06525 34.77929,-12.19139 36.65093,-18.09816 63.67903,-50.61853 77.08179,-92.75557 5.47105,-17.19411 7.08886,-27.79906 7.66571,-50.32078 0.44112,-17.16693 0.20763,-21.75504 -1.70607,-33.20963 -5.43438,-32.52038 -16.2869,-54.9823 -35.96144,-74.40862 -14.15603,-13.97638 -25.81476,-21.1297 -45.01292,-27.61825 -19.6162,-6.62727 -25.52157,-7.24309 -69.89791,-7.29611 l -39.76718,-0.0421 v 136.80798 c 0,126.6245 0.13183,137.24984 1.78072,142.6563 3.15964,10.34392 11.47276,16.79583 25.03973,19.43582 9.10844,1.76727 33.6976,1.20447 45.99828,-1.05761 z M 723.1394,449.4679 c 14.7654,-1.31592 24.69634,-3.99264 36.6672,-9.88715 11.38863,-5.60764 20.69249,-12.65498 29.48336,-22.33549 10.51861,-11.58102 18.22096,-26.4179 22.74329,-43.80369 3.06465,-11.78357 3.898,-38.20826 1.61783,-51.48312 -7.68742,-44.84637 -39.50928,-74.68461 -85.41662,-80.10057 -15.37483,-1.81622 -71.00543,-0.90268 -72.3043,1.18949 -0.53611,0.85508 -0.93921,44.95105 -0.9487,103.89474 v 102.40483 l 2.32629,0.45676 c 4.78291,0.93396 54.42267,0.67971 65.84793,-0.3358 z"
     style="fill:#dfe2cf;fill-opacity:1;fill-rule:nonzero;stroke:none;stroke-width:1.35833" /><path
     id="path2"
     d="m 690.11976,771.28837 c -22.19995,-1.15374 -31.01313,-3.18661 -46.66324,-10.75081 -21.41333,-10.35063 -52.3078,-36.71704 -78.76118,-67.21407 l -7.89818,-9.10992 V 491.51439 c 0,-125.80259 -0.35608,-196.99539 -1.013,-205.07164 -0.55064,-6.80792 -1.86585,-15.1533 -2.92301,-18.54413 -47.57963,-63.30155 -63.74727,-39.10597 67.19336,-38.64777 115.2367,0.45268 114.72466,0.43058 140.18024,5.35332 19.96839,3.85457 42.10902,11.90871 57.00973,20.73295 26.95989,15.96754 45.04582,38.84236 52.10768,65.90986 2.91199,11.1483 3.60202,30.88482 1.47257,42.24289 -5.86535,31.34299 -23.91405,55.06935 -54.68018,71.86627 -9.7737,5.33814 -30.75508,13.08455 -40.94971,15.12707 -3.68207,0.73423 -7.04118,1.66164 -7.47176,2.05494 -0.42644,0.39332 1.83827,1.03507 5.02901,1.42839 8.07071,0.98675 30.10368,6.98042 42.10348,11.45604 12.24821,4.56531 30.64192,14.19413 39.66074,20.76053 18.26536,13.29847 31.74185,28.97619 41.1126,48.12479 5.58933,11.43396 9.71437,24.1031 12.52284,38.2434 2.42619,12.2482 2.46895,43.02399 0.0705,56.92278 -3.61307,20.97583 -11.90321,42.81975 -22.96595,60.53999 -7.42897,11.89215 -25.96757,32.00542 -37.9094,41.12776 -10.48447,8.00999 -29.29911,18.80912 -41.63425,23.89194 -32.29666,13.3164 -70.02803,18.62005 -115.58174,16.2546 z m 18.63663,-13.89327 c 11.45605,-2.24814 18.82567,-5.00279 32.18484,-12.03847 33.90859,-17.85959 58.917,-49.96853 71.32116,-91.56416 5.06214,-16.97085 6.55539,-27.44013 7.08948,-49.67734 0.4099,-16.94464 0.19458,-21.4782 -1.58019,-32.78244 -5.0235,-32.10343 -15.06634,-54.27581 -33.27236,-73.4465 -13.09971,-13.80078 -23.8864,-20.86264 -41.6508,-27.26761 -18.14529,-6.54433 -23.61181,-7.15296 -64.67469,-7.20678 l -36.79295,-0.0441 v 135.06016 c 0,124.99939 0.11874,135.48522 1.6492,140.822 2.92163,10.21535 10.61006,16.58166 23.17017,19.18589 8.42125,1.74715 31.17599,1.19098 42.55614,-1.0406 z m -4.77646,-309.06204 c 13.66142,-1.29451 22.85276,-3.94152 33.92514,-9.75718 10.53966,-5.53136 19.14859,-12.49109 27.27865,-22.04403 9.73648,-11.43949 16.86321,-26.08211 21.04621,-43.24618 2.83609,-11.63407 3.60617,-37.72035 1.49877,-50.82005 -7.11567,-44.27022 -36.55555,-73.72665 -79.03166,-79.07447 -14.22587,-1.78999 -65.69871,-0.89015 -66.90628,1.16892 -0.49683,0.85288 -0.86806,44.37923 -0.87358,102.56896 v 101.09085 l 2.15155,0.44714 c 4.42037,0.92191 50.35083,0.67349 60.92777,-0.33396 z"
     style="fill:#dfe2cf;fill-opacity:1;fill-rule:nonzero;stroke:none;stroke-width:1.38007" /><path
     id="path3"
     d="M 649.57026,872.0377 C 540.15476,864.14086 447.7432,809.96719 393.04789,721.66829 380.62164,701.60883 378.72401,697.97508 349.77408,638.88557 329.6608,597.82265 320.57709,581.10021 308.21021,562.36564 279.10985,518.28451 248.77016,498.18225 210.55849,497.64818 l -10.89986,-0.15038 -0.30224,90.80929 c -0.17792,53.79136 0.13525,98.42867 0.77008,109.49552 1.78997,31.20364 6.66995,45.63513 19.49915,57.69427 11.45052,10.76047 23.34267,15.97857 44.86918,19.68685 6.54434,1.13304 12.30201,2.45377 12.7878,2.93816 0.48441,0.48582 0.73284,2.46484 0.54928,4.38868 l -0.33399,3.50954 -128.43438,0.25947 -128.433027,0.26358 v -9.1596 l 7.520069,-1.25034 c 22.65815,-3.76764 44.232927,-14.86346 54.843011,-28.21021 5.756309,-7.23578 9.762677,-15.94684 12.582177,-27.33799 l 2.29644,-9.29349 0.25257,-209.64385 c 0.27051,-223.58814 0.3947,-217.39986 -4.65224,-230.65553 -3.32049,-8.73867 -6.900401,-14.0382 -13.925028,-20.6046 -12.808511,-11.9791 -29.330827,-18.23224 -60.215639,-22.77131 -3.839394,-0.56586 -3.893223,-0.64176 -3.893223,-5.25122 v -4.67432 l 156.45556,0.40435 c 110.01309,0.2912 159.07632,0.76594 165.27565,1.60642 45.76896,6.19518 70.76772,14.28657 95.97489,31.05733 25.08985,16.6962 42.52995,41.21469 50.00168,70.30402 2.68979,10.45825 2.92715,12.89548 2.83468,29.05622 -0.0912,15.43481 -0.43607,18.90158 -2.76428,27.67751 -20.52456,77.42527 -102.54686,101.30616 -162.12768,108.26591 -7.4124,0.86254 -15.78535,1.57469 -18.59382,1.57469 -6.74858,0 -5.60589,0.84597 3.70412,2.73805 27.05648,5.51067 60.29157,22.16271 87.01544,43.60226 11.52508,9.24515 35.62817,32.81418 50.25976,49.13915 6.39254,7.13639 23.70839,27.21793 38.47939,44.63039 51.38731,60.5731 77.9207,89.56582 101.6581,111.08127 47.63345,43.17029 88.98756,66.19002 137.04195,76.29773 18.00039,3.78418 49.68841,4.75438 67.92063,2.08116 46.9393,-6.88521 88.00773,-27.90382 121.02752,-61.94767 34.33914,-35.40181 56.33486,-81.37088 62.25403,-130.1098 2.09634,-17.26756 1.61749,-28.49728 -2.21088,-51.59154 -4.75992,-28.76086 -4.43142,-46.46452 1.21309,-65.04178 3.47776,-11.44501 11.51531,-27.12687 19.41905,-37.87632 8.2639,-11.24628 27.828,-30.52459 40.9443,-40.34664 15.6597,-11.72513 14.8993,-11.60095 12.4303,-2.02597 -2.2577,8.75938 -2.636,24.66344 -1.7996,75.97343 0.3712,22.81961 0.1877,26.50167 -1.7692,35.88761 -4.9807,23.87677 -13.8919,39.11147 -35.159,60.11492 -7.5145,7.41791 -14.95458,15.48724 -16.52915,17.92447 -1.57892,2.43721 -3.05137,4.24789 -3.27228,4.02707 -0.2207,-0.22081 0.80322,-5.48308 2.27589,-11.69342 3.85444,-16.29044 6.27374,-27.94663 9.34734,-45.02513 5.741,-31.95713 10.1518,-53.60644 12.5392,-61.58607 4.092,-13.67659 2.0163,-10.17809 -3.094,5.21396 -7.6553,23.057 -12.1144,42.87354 -24.50197,108.91316 -5.24018,27.92454 -10.57699,50.30806 -14.5019,60.82011 l -2.03701,5.47204 6.65748,-6.96526 c 3.66001,-3.82698 10.17254,-12.30757 14.46884,-18.84086 14.83026,-22.55603 29.45636,-31.343 54.20126,-32.56162 11.8107,-0.58238 34.9808,1.97353 36.2312,3.99395 0.3133,0.50788 -0.1725,0.92189 -1.0889,0.92189 -5.363,0 -15.6763,7.64429 -30.1188,22.3242 -15.6226,15.89299 -25.7096,20.68463 -45.925,21.83838 -6.1344,0.35055 -12.49107,1.05715 -14.12501,1.57468 -2.68987,0.8515 -2.83479,0.77697 -1.55679,-0.78113 2.3171,-2.81951 19.0244,-16.48093 25.7413,-21.0421 3.428,-2.32818 9.6329,-6.08615 13.7897,-8.34947 4.1512,-2.26471 7.084,-4.11955 6.5127,-4.12505 -2.4042,-0.0108 -24.4538,11.5485 -31.2783,16.39396 -16.80931,11.9515 -34.07687,32.5354 -43.52077,51.88828 -3.14934,6.45874 -8.70691,16.73345 -12.3462,22.83064 -45.29423,75.92097 -126.13655,124.01262 -229.9172,136.77837 -11.83834,1.4615 -52.3409,2.63595 -63.31117,1.8493 z m -5.79081,-42.39884 c -17.76301,-4.11402 -36.539,-10.97164 -54.40553,-19.87177 -26.08627,-12.99207 -44.01074,-25.17542 -61.39148,-41.71018 -17.4511,-16.60924 -26.83013,-30.27481 -39.44546,-57.47754 -9.26722,-19.97946 -16.44227,-31.08357 -26.60932,-41.17608 -19.46188,-19.31562 -51.76404,-34.43714 -85.55389,-40.05961 l -3.87114,-0.64726 5.42787,7.22333 c 6.49187,8.63656 11.52642,18.45308 17.36,33.86168 7.05635,18.64072 13.98849,30.88341 22.77546,40.23208 13.40197,14.25898 23.63941,19.90904 44.69114,24.66341 7.13226,1.61195 14.28659,3.43366 15.89302,4.04363 1.60641,0.61415 3.12171,1.11509 3.36876,1.11509 0.91637,0 -19.00233,-26.5127 -26.41474,-35.15891 -4.22165,-4.92274 -14.02712,-15.42376 -21.79561,-23.33301 -13.73593,-13.98847 -13.91396,-14.22034 -6.34009,-8.46817 20.73846,15.75776 34.73939,29.80007 53.84522,53.98459 20.62528,26.11941 25.63911,31.97371 35.43907,41.38587 26.86877,25.80058 61.45223,45.33836 98.88137,55.85598 15.05668,4.2258 31.54725,7.91889 35.4929,7.94098 1.70992,0.005 -1.59538,-1.07369 -7.34755,-2.40411 z M 278.36599,475.70212 c 57.10634,-7.48831 94.20704,-44.67044 103.5543,-103.78754 1.97904,-12.51182 1.49325,-37.32565 -0.97572,-49.81675 -9.79029,-49.52696 -40.37285,-79.2097 -90.99421,-88.30858 -18.89467,-3.39637 -85.01983,-2.90092 -89.32153,0.66796 -1.27796,1.0613 -1.48773,18.26398 -1.48773,121.32837 0,66.04926 0.31191,120.40096 0.69556,120.77908 1.44909,1.45463 66.30733,0.73834 78.52933,-0.86254 z"
     style="fill:#dfe2cf;fill-opacity:1;fill-rule:nonzero;stroke:none;stroke-width:1.38007" /></svg>
