<?xml version="1.0" encoding="UTF-8" standalone="no"?>
<!-- Created with Inkscape (http://www.inkscape.org/) -->

<svg
   width="1080"
   height="1080"
   viewBox="0 0 1080 1080"
   version="1.1"
   id="svg1"
   xml:space="preserve"
   sodipodi:docname="LogoName Completa preta  Oficial.svg"
   inkscape:version="1.4.2 (f4327f4, 2025-05-13)"
   xmlns:inkscape="http://www.inkscape.org/namespaces/inkscape"
   xmlns:sodipodi="http://sodipodi.sourceforge.net/DTD/sodipodi-0.dtd"
   xmlns="http://www.w3.org/2000/svg"
   xmlns:svg="http://www.w3.org/2000/svg"><sodipodi:namedview
     id="namedview1"
     pagecolor="#ffffff"
     bordercolor="#000000"
     borderopacity="0.25"
     inkscape:showpageshadow="2"
     inkscape:pageopacity="0.0"
     inkscape:pagecheckerboard="0"
     inkscape:deskcolor="#d1d1d1"
     inkscape:document-units="px"
     inkscape:zoom="0.5"
     inkscape:cx="671"
     inkscape:cy="557"
     inkscape:window-width="1920"
     inkscape:window-height="991"
     inkscape:window-x="-9"
     inkscape:window-y="-9"
     inkscape:window-maximized="1"
     inkscape:current-layer="svg1"><inkscape:page
       x="0"
       y="0"
       width="1080"
       height="1080"
       id="page1"
       margin="0"
       bleed="0" /></sodipodi:namedview><defs
     id="defs1" /><g
     inkscape:label="Camada 1"
     inkscape:groupmode="layer"
     id="layer1" /><!-- Monograma grande centralizado --><!-- Espiga topo centralizada --><!-- Nome empilhado --><!-- Linha divisória --><!-- ADVOCACIA --><!-- AGRO destaque --><!-- OAB rodapé --><text
     xml:space="preserve"
     style="text-align:start;writing-mode:lr-tb;direction:ltr;text-anchor:start;fill:#7d5d3b;fill-opacity:1"
     x="534.47394"
     y="958.29895"
     id="text4"><tspan
       sodipodi:role="line"
       id="tspan4"
       x="534.47394"
       y="958.29895" /></text><rect
     style="opacity:0;fill:#000000;fill-rule:evenodd;stroke:#000000"
     id="rect3-8"
     width="709.33881"
     height="867.40869"
     x="503.07471"
     y="309.24548" /><rect
     style="opacity:0;fill:#000000;fill-opacity:1;fill-rule:evenodd;stroke:#000000;stroke-width:0.552021"
     id="rect8-8"
     width="123.40141"
     height="70.955811"
     x="577.93573"
     y="482.07217" /><path
     style="fill:#000000;fill-opacity:1;stroke-width:0.523589"
     d="m 619.17014,559.11441 c -55.19822,-3.98424 -101.82034,-31.3129 -129.41285,-75.8583 -6.26859,-10.12013 -7.228,-11.95539 -21.83145,-41.76633 -10.14803,-20.7158 -14.72981,-29.15007 -20.97013,-38.60305 -14.67969,-22.23688 -29.98608,-32.38111 -49.26438,-32.64959 l -5.49763,-0.0765 -0.15236,45.81417 c -0.0901,27.13817 0.0678,49.65609 0.38846,55.2388 0.90299,15.74156 3.36446,23.02376 9.83851,29.10805 5.77574,5.42781 11.77621,8.06109 22.63442,9.93296 3.30329,0.56947 6.20671,1.23616 6.45213,1.48153 0.24532,0.24538 0.37008,1.24186 0.27712,2.21439 l -0.16909,1.76825 -64.79433,0.13295 -64.79434,0.13296 v -2.31091 -2.3109 l 3.79603,-0.63086 c 11.43032,-1.8996 22.31376,-7.49763 27.66743,-14.23116 2.90357,-3.65192 4.92541,-8.04633 6.34581,-13.79275 l 1.15881,-4.68784 0.12817,-105.76528 c 0.1368,-112.79777 0.19967,-109.67617 -2.34482,-116.3653 -1.67621,-4.40649 -3.48331,-7.08008 -7.02496,-10.39318 -6.46202,-6.04482 -14.80025,-9.1983 -30.38094,-11.48986 -1.93561,-0.28468 -1.96343,-0.32223 -1.96343,-2.64769 V 229 l 78.93127,0.20603 c 55.50106,0.14488 80.25237,0.38487 83.38178,0.80848 23.08939,3.12543 35.70076,7.2068 48.4184,15.66953 12.65735,8.42251 21.45569,20.7928 25.22522,35.46618 1.35554,5.27651 1.47539,6.50594 1.42902,14.66054 -0.0442,7.78725 -0.21866,9.53454 -1.39308,13.96391 -10.35603,39.058 -51.73633,51.10771 -81.79201,54.61737 -3.74183,0.43694 -7.96341,0.79445 -9.381,0.79445 -3.40437,0 -2.82745,0.42724 1.86776,1.38329 13.65022,2.77949 30.41671,11.18057 43.89961,21.99644 5.81362,4.66369 17.97437,16.55321 25.356,24.7906 3.22579,3.59968 11.96126,13.73115 19.41211,22.51438 25.92375,30.55946 39.30972,45.18627 51.28665,56.04071 24.03153,21.77954 44.8928,33.3937 69.13797,38.4915 9.08091,1.90937 25.06701,2.39946 34.2654,1.05052 23.67967,-3.47266 44.39808,-14.07729 61.05643,-31.25152 17.32392,-17.86045 28.41985,-41.05115 31.40645,-65.64018 1.05811,-8.71202 0.81578,-14.37758 -1.11348,-26.02871 -2.40256,-14.50887 -2.23624,-23.43968 0.61098,-32.81385 1.75333,-5.77234 5.80914,-13.68339 9.79589,-19.10711 4.17113,-5.67448 14.04006,-15.39916 20.65576,-20.35384 7.90141,-5.91753 7.51825,-5.85494 6.27295,-1.02473 -1.13943,4.41942 -1.32971,12.44314 -0.90907,38.32995 0.18708,11.51344 0.0958,13.36869 -0.89185,18.10469 -2.51192,12.04545 -7.00807,19.73316 -17.73716,30.32743 -3.79134,3.74367 -7.5447,7.81283 -8.34066,9.04257 -0.79612,1.22975 -1.53865,2.1447 -1.65016,2.03323 -0.1115,-0.11147 0.40475,-2.76694 1.14699,-5.90103 1.94643,-8.21803 3.16745,-14.09894 4.71614,-22.71505 2.89773,-16.12111 5.12188,-27.04413 6.32622,-31.06787 2.06523,-6.89962 1.01843,-5.13489 -1.56006,2.63019 -3.86217,11.63065 -6.11165,21.62845 -12.36236,54.94439 -2.64346,14.08918 -5.33512,25.38082 -7.31461,30.6854 l -1.02952,2.75899 3.35955,-3.51324 c 1.84772,-1.93227 5.13241,-6.2094 7.29926,-9.50471 7.48276,-11.37987 14.86207,-15.81324 27.34422,-16.42799 5.96034,-0.29355 17.64944,0.99492 18.27985,2.01498 0.15832,0.25633 -0.0887,0.46605 -0.54909,0.46605 -2.70667,0 -7.90997,3.85699 -15.19417,11.26273 -7.88436,8.01581 -12.97212,10.43467 -23.17054,11.01595 -3.0948,0.1764 -6.30122,0.53413 -7.12522,0.79494 -1.35737,0.42959 -1.43128,0.39247 -0.78542,-0.39472 1.16758,-1.42318 9.59678,-8.3135 12.98448,-10.61411 1.73125,-1.17561 4.86188,-3.07192 6.95702,-4.21403 2.09514,-1.14209 3.57379,-2.07768 3.28574,-2.07909 -1.21296,-0.006 -12.3358,5.82465 -15.77782,8.2707 -8.48219,6.02783 -17.19232,16.4116 -21.95698,26.17616 -1.58968,3.25785 -4.39268,8.4414 -6.22881,11.519 -22.8512,38.2999 -63.63564,62.56266 -115.99327,69.00468 -5.97055,0.73461 -26.40423,1.32976 -31.93896,0.93026 z m -2.9197,-21.39067 c -8.96184,-2.07513 -18.43409,-5.53441 -27.4486,-10.02431 -13.15985,-6.55458 -22.2039,-12.69919 -30.97022,-21.04151 -8.80534,-8.37937 -13.53672,-15.2733 -19.90075,-28.99634 -4.67524,-10.08128 -8.29556,-15.68338 -13.42544,-20.77462 -9.81731,-9.74326 -26.11293,-17.37397 -43.16106,-20.21094 l -1.95404,-0.32516 2.73946,3.64315 c 3.27641,4.35746 5.81532,9.30976 8.75754,17.08258 3.56026,9.40534 7.05693,15.58243 11.49093,20.2992 6.7605,7.19156 11.92692,10.04275 22.54555,12.44233 3.59973,0.81345 7.20818,1.73141 8.01883,2.0399 0.8107,0.30851 1.57574,0.56092 1.70022,0.56092 0.46083,0 -9.58822,-13.37377 -13.32739,-17.73675 -2.12854,-2.48371 -7.07648,-7.78075 -10.99544,-11.77121 -6.93085,-7.05748 -7.01818,-7.17399 -3.19825,-4.27153 10.4623,7.94975 17.52701,15.03276 27.16398,27.23461 10.40605,13.17562 12.93662,16.13053 17.88052,20.87873 13.55428,13.01789 31.00003,22.87252 49.88364,28.17787 7.59724,2.13444 15.91643,3.99586 17.90558,4.00638 0.86391,0.004 -0.8033,-0.54141 -3.70506,-1.2133 z M 431.89965,359.16559 c 28.80923,-3.77656 47.52755,-22.53612 52.24441,-52.35946 0.99816,-6.31169 0.75296,-18.83194 -0.4924,-25.13235 -4.93888,-24.98728 -20.36838,-39.96156 -45.90566,-44.55142 -9.53401,-1.71354 -42.89294,-1.46459 -45.06283,0.33632 -0.64476,0.53509 -0.75135,9.21531 -0.75135,61.20864 0,33.32182 0.1571,60.74219 0.3491,60.93418 0.73242,0.73243 33.45249,0.37242 39.61873,-0.43591 z"
     id="path8"
     sodipodi:nodetypes="ssssscccsssscccccssscssssscssssssssssssssssssssssssssssssssscsssssssssssssscssssssssscsssssssscssssssscsssss" /><path
     style="fill:#000000;fill-opacity:1;stroke-width:0.523589"
     d="m 641.93698,507.13979 c -12.16159,-0.58381 -16.99084,-1.61113 -25.56417,-5.43817 -11.73029,-5.23628 -28.65681,-18.5762 -43.14804,-34.00531 l -4.32867,-4.60879 -0.009,-97.49134 c 0,-63.64795 -0.19608,-99.66468 -0.55462,-103.75201 -0.30207,-3.44338 -1.02223,-7.66493 -1.60042,-9.38122 -26.06772,-32.02596 -34.92352,-19.78505 36.81182,-19.55208 63.12922,0.22779 62.84951,0.21794 76.79368,2.70595 10.94057,1.95208 23.07096,6.02657 31.23326,10.49092 14.7679,8.07726 24.67618,19.65097 28.54696,33.34521 1.59407,5.63979 1.97105,15.62476 0.80667,21.37094 -3.21332,15.85863 -13.10262,27.86186 -29.95588,36.35941 -5.35632,2.7007 -16.84963,6.62102 -22.4357,7.65275 -2.01581,0.37233 -3.85686,0.84025 -4.09114,1.03985 -0.23433,0.19961 1.00479,0.52479 2.75343,0.72263 4.42329,0.50043 16.49208,3.53341 23.06671,5.7968 6.71065,2.31024 16.78575,7.18057 21.72905,10.50395 15.97986,10.74328 25.26961,24.55925 29.38029,43.69524 1.33103,6.19626 1.3535,21.76627 0.0419,28.79748 -1.98026,10.61272 -6.52058,21.6644 -12.5836,30.63004 -4.06746,6.01479 -14.22476,16.19239 -20.76511,20.80648 -5.7455,4.05344 -16.05168,9.51551 -22.80903,12.08827 -17.69366,6.73669 -38.3646,9.42103 -63.32154,8.223 z m 10.20996,-7.02903 c 6.27516,-1.13614 10.31215,-2.53073 17.63035,-6.09037 18.57789,-9.0365 32.27829,-25.27963 39.07257,-46.32402 2.77219,-8.58656 3.59112,-13.88426 3.88468,-25.13234 0.22368,-8.57272 0.10395,-10.86609 -0.86562,-16.58663 -2.75293,-16.24091 -8.25587,-27.45984 -18.22703,-37.1595 -7.17699,-6.98152 -13.08611,-10.55391 -22.81769,-13.79451 -9.9424,-3.31082 -12.93706,-3.61886 -35.43216,-3.64461 l -20.15817,-0.0231 v 68.32855 c 0,63.24048 0.067,68.54581 0.90372,71.24607 1.60075,5.1669 5.81488,8.38944 12.69368,9.70686 4.61545,0.88394 17.08042,0.60248 23.31567,-0.52646 z m -2.61796,-156.36071 c 7.48359,-0.6565 12.51885,-1.9941 18.58744,-4.9376 5.77238,-2.79977 10.48802,-6.3193 14.94366,-11.15331 5.33303,-5.78574 9.2372,-13.19489 11.52947,-21.87979 1.55311,-5.8842 1.97408,-19.08112 0.8203,-25.71029 -3.89843,-22.39788 -20.027,-37.30041 -43.29719,-40.0057 -7.79437,-0.90615 -35.99268,-0.45002 -36.65279,0.59286 -0.27159,0.42913 -0.47523,22.45054 -0.47981,51.89006 l -0.009,51.14455 1.17813,0.22692 c 2.42403,0.46689 27.58644,0.34047 33.37891,-0.1677 z"
     id="path8-4"
     sodipodi:nodetypes="cssccsssssssssssssscsssccsssscssscscssssssssssccsss" /><text
     x="537.76343"
     y="683.15918"
     font-family="Georgia, 'Times New Roman', serif"
     font-size="103.337px"
     font-weight="300"
     fill="#f2ebd9"
     letter-spacing="7"
     text-anchor="middle"
     id="text5-4"
     style="stroke-width:2.87045;fill:#000000;fill-opacity:1">RAMON BASTOS</text><line
     x1="672.14307"
     y1="745.14728"
     x2="911.50897"
     y2="745.14728"
     stroke="#7c5c3a"
     stroke-width="0.925791"
     id="line6-2"
     style="fill:#000000;fill-opacity:1;fill-rule:evenodd;stroke:#5a7a68;stroke-opacity:1" /><line
     x1="158.21982"
     y1="745.14758"
     x2="397.58591"
     y2="745.14758"
     stroke="#7c5c3a"
     stroke-width="0.925791"
     id="line6-6-0"
     style="stroke:#5a7a68;stroke-opacity:1;fill:#000000;fill-opacity:1" /><text
     x="535.00012"
     y="756.3125"
     font-family="'Courier New', monospace"
     font-size="40.6112px"
     fill="#9a9189"
     letter-spacing="4"
     text-anchor="middle"
     id="text6-9"
     style="fill:#000000;fill-opacity:1;stroke-width:3.69192">ADVOCACIA</text><text
     x="535.00012"
     y="851.4823"
     font-family="Georgia, 'Times New Roman', serif"
     font-size="103.374px"
     font-weight="700"
     fill="#7c5c3a"
     letter-spacing="8"
     text-anchor="middle"
     id="text7-7"
     style="fill:#000000;fill-opacity:1;stroke-width:3.69192">AGRO</text><text
     x="534.53638"
     y="893.72607"
     font-family="'Courier New', monospace"
     font-size="23.1516px"
     fill="rgba(154,145,137,0.55)"
     letter-spacing="2.5"
     text-anchor="middle"
     id="text8-3"
     style="fill:#000000;fill-opacity:1;stroke-width:2.31516">OAB/MA 29.564-A · OAB/TO 5.956</text></svg>
