<?xml version="1.0" encoding="UTF-8" standalone="no"?>
<!-- Created with Inkscape (http://www.inkscape.org/) -->

<svg
   width="1080"
   height="1080"
   viewBox="0 0 1080 1080"
   version="1.1"
   id="svg1"
   xml:space="preserve"
   sodipodi:docname="logo1final.svg"
   inkscape:version="1.4.2 (f4327f4, 2025-05-13)"
   xmlns:inkscape="http://www.inkscape.org/namespaces/inkscape"
   xmlns:sodipodi="http://sodipodi.sourceforge.net/DTD/sodipodi-0.dtd"
   xmlns="http://www.w3.org/2000/svg"
   xmlns:svg="http://www.w3.org/2000/svg"><sodipodi:namedview
     id="namedview1"
     pagecolor="#ffffff"
     bordercolor="#000000"
     borderopacity="0.25"
     inkscape:showpageshadow="2"
     inkscape:pageopacity="0.0"
     inkscape:pagecheckerboard="0"
     inkscape:deskcolor="#d1d1d1"
     inkscape:document-units="px"
     inkscape:zoom="0.5"
     inkscape:cx="232"
     inkscape:cy="465"
     inkscape:window-width="1920"
     inkscape:window-height="991"
     inkscape:window-x="-9"
     inkscape:window-y="-9"
     inkscape:window-maximized="1"
     inkscape:current-layer="svg1"><inkscape:page
       x="0"
       y="0"
       width="1080"
       height="1080"
       id="page1"
       margin="0"
       bleed="0" /></sodipodi:namedview><defs
     id="defs1" /><g
     inkscape:label="Camada 1"
     inkscape:groupmode="layer"
     id="layer1" /><!-- Monograma grande centralizado --><!-- Espiga topo centralizada --><!-- Nome empilhado --><!-- Linha divisória --><!-- ADVOCACIA --><!-- AGRO destaque --><!-- OAB rodapé --><text
     xml:space="preserve"
     style="text-align:start;writing-mode:lr-tb;direction:ltr;text-anchor:start;fill:#7d5d3b;fill-opacity:1"
     x="534.47394"
     y="958.29895"
     id="text4"><tspan
       sodipodi:role="line"
       id="tspan4"
       x="534.47394"
       y="958.29895" /></text><rect
     style="opacity:0;fill:#000000;fill-rule:evenodd;stroke:#000000"
     id="rect3-8"
     width="709.33881"
     height="867.40869"
     x="503.07471"
     y="309.24548" /><path
     id="path3"
     d="M 660.2757,851.29922 C 556.46014,843.80656 468.77827,792.40553 416.88228,708.62582 405.09202,689.59301 403.29152,686.14525 375.82326,630.07998 356.73939,591.11869 348.1206,575.25212 336.38665,557.47639 308.77565,515.65135 279.98878,496.57795 243.73282,496.0712 l -10.34201,-0.14274 -0.28676,86.1616 c -0.16892,51.03831 0.12832,93.39104 0.73067,103.8915 1.69835,29.6066 6.32856,43.29948 18.50117,54.74143 10.86447,10.20975 22.14797,15.16077 42.57273,18.67926 6.2094,1.07504 11.67241,2.32818 12.13333,2.7878 0.45962,0.46094 0.69533,2.33868 0.52116,4.16404 l -0.31689,3.32993 -121.86104,0.24618 -121.859735,0.2501 v -8.69081 l 7.135185,-1.18635 c 21.49849,-3.57479 41.96907,-14.10274 52.0361,-26.7664 5.4617,-6.86543 9.26303,-15.13066 11.93823,-25.93882 l 2.17891,-8.81783 0.23964,-198.91413 c 0.25665,-212.14477 0.3745,-206.27322 -4.41415,-218.85045 -3.15052,-8.29143 -6.54724,-13.3197 -13.21232,-19.55004 -12.15296,-11.366 -27.82967,-17.29911 -57.133774,-21.60587 -3.642893,-0.53688 -3.693956,-0.6089 -3.693956,-4.98245 v -4.43509 l 148.44806,0.38366 c 104.38255,0.27629 150.93468,0.72674 156.81673,1.5242 43.42648,5.87811 67.1458,13.55539 91.06284,29.46779 23.80574,15.84168 40.35323,39.10531 47.44257,66.70583 2.55211,9.923 2.77734,12.23548 2.6896,27.5691 -0.0864,14.64485 -0.41378,17.93418 -2.62282,26.26095 -19.47409,73.46259 -97.29845,96.12125 -153.82987,102.72479 -7.03304,0.81841 -14.97746,1.49409 -17.64218,1.49409 -6.40319,0 -5.31897,0.80269 3.51455,2.59793 25.6717,5.22863 57.20581,21.02841 82.56193,41.37066 10.9352,8.77199 33.80468,31.13473 47.68743,46.62417 6.06536,6.77115 22.49499,25.82491 36.50999,42.34619 48.75726,57.47294 73.93268,84.98179 96.45517,105.39606 45.19556,40.96081 84.43312,62.80238 130.02806,72.39277 17.07911,3.59051 47.14532,4.51105 64.44442,1.97465 44.5369,-6.53283 83.50342,-26.4757 114.83325,-58.77715 32.58165,-33.58992 53.45161,-77.20628 59.06782,-123.4507 1.98904,-16.3838 1.53471,-27.03878 -2.09773,-48.95106 -4.51629,-27.28886 -4.20462,-44.08644 1.151,-61.71291 3.29977,-10.85925 10.92597,-25.73848 18.42517,-35.93777 7.841,-10.67067 26.4038,-28.96233 38.8488,-38.28167 14.8582,-11.12505 14.1367,-11.00721 11.7941,-1.92227 -2.1422,8.31106 -2.5011,23.40113 -1.7075,72.08504 0.3522,21.65171 0.1781,25.14531 -1.6787,34.05086 -4.7258,22.65474 -13.1809,37.10973 -33.3595,57.0382 -7.1299,7.03826 -14.1892,14.6946 -15.6832,17.00708 -1.4981,2.31249 -2.8952,4.03048 -3.1048,3.82097 -0.2094,-0.20951 0.7621,-5.20244 2.1594,-11.09494 3.6572,-15.4567 5.9527,-26.5163 8.8689,-42.7207 5.4472,-30.32155 9.6323,-50.86284 11.8975,-58.43407 3.8826,-12.97661 1.9131,-9.65717 -2.9357,4.9471 -7.2635,21.87693 -11.4943,40.67926 -23.2479,103.33891 -4.972,26.49535 -10.03567,47.73327 -13.7597,57.70732 l -1.93274,5.19197 6.31674,-6.60878 c 3.4727,-3.63111 9.6519,-11.67766 13.7283,-17.87657 14.0713,-21.40161 27.9488,-29.73884 51.4272,-30.8951 11.2062,-0.55258 33.1905,1.87252 34.3769,3.78955 0.2973,0.48188 -0.1637,0.87471 -1.0332,0.87471 -5.0885,0 -14.874,7.25303 -28.5773,21.18162 -14.823,15.07958 -24.3937,19.62598 -43.5745,20.72067 -5.8204,0.33261 -11.8518,1.00305 -13.4021,1.49409 -2.5522,0.80793 -2.6897,0.73721 -1.4771,-0.74115 2.1985,-2.6752 18.0507,-15.63743 24.4238,-19.96513 3.2526,-2.20905 9.1399,-5.77467 13.084,-7.92216 3.9387,-2.1488 6.7214,-3.9087 6.1793,-3.91393 -2.2811,-0.009 -23.2022,10.95745 -29.6774,15.5549 -15.949,11.33982 -32.33282,30.87022 -41.29336,49.2326 -2.98815,6.1282 -8.2613,15.87704 -11.71431,21.66217 -42.97604,72.03528 -119.68081,117.66558 -218.1499,129.77796 -11.23244,1.38671 -49.66207,2.50105 -60.07087,1.75466 z m -5.49444,-40.22883 c -16.85389,-3.90346 -34.66892,-10.4101 -51.62102,-18.85472 -24.75116,-12.32713 -41.75825,-23.88693 -58.24943,-39.57542 -16.55795,-15.75918 -25.45695,-28.72532 -37.4266,-54.53582 -8.79294,-18.95688 -15.60075,-29.49268 -25.24745,-39.06866 -18.46581,-18.32702 -49.11472,-32.67463 -81.17521,-38.00932 l -3.673,-0.61413 5.15006,6.85364 c 6.15963,8.19453 10.93648,17.50862 16.47151,32.1286 6.69521,17.68669 13.27255,29.30279 21.6098,38.17299 12.71605,13.5292 22.42953,18.89007 42.40383,23.40112 6.76722,1.52944 13.55539,3.25791 15.07958,3.83668 1.52419,0.5827 2.96196,1.05802 3.19636,1.05802 0.86947,0 -18.02978,-25.15577 -25.06281,-33.35945 -4.0056,-4.6708 -13.30922,-14.63438 -20.68009,-22.13882 -13.03293,-13.27255 -13.20184,-13.49254 -6.0156,-8.03477 19.67705,14.95127 32.9614,28.27489 51.08938,51.22163 19.56967,24.7826 24.32689,30.33727 33.62528,39.2677 25.49361,24.4801 58.30705,43.01794 93.82055,52.99723 14.28607,4.00953 29.93265,7.51361 33.67635,7.53456 1.62241,0.005 -1.51372,-1.01874 -6.97149,-2.28106 z M 308.06988,475.24837 c 54.18359,-7.10507 89.38546,-42.38418 98.25433,-98.47564 1.87775,-11.87145 1.41682,-35.41529 -0.92579,-47.26709 -9.28921,-46.99213 -38.30655,-75.1557 -86.33705,-83.78889 -17.92764,-3.22255 -80.66848,-2.75246 -84.75002,0.63377 -1.21254,1.00697 -1.41158,17.32922 -1.41158,115.11871 0,62.66881 0.29594,114.23875 0.65997,114.59753 1.37491,1.38017 62.91367,0.70056 74.51014,-0.81839 z"
     style="fill:#30451a;fill-opacity:1;fill-rule:nonzero;stroke:none;stroke-width:1.30944" /></svg>
