<?xml version="1.0" encoding="UTF-8" standalone="no"?>
<!-- Created with Inkscape (http://www.inkscape.org/) -->

<svg
   width="1920"
   height="1080"
   viewBox="0 0 1920 1080"
   version="1.1"
   id="svg1"
   inkscape:version="1.4.2 (f4327f4, 2025-05-13)"
   sodipodi:docname="logoname1.svg"
   xmlns:inkscape="http://www.inkscape.org/namespaces/inkscape"
   xmlns:sodipodi="http://sodipodi.sourceforge.net/DTD/sodipodi-0.dtd"
   xmlns="http://www.w3.org/2000/svg"
   xmlns:svg="http://www.w3.org/2000/svg">
  <sodipodi:namedview
     id="namedview1"
     pagecolor="#ffffff"
     bordercolor="#000000"
     borderopacity="0.25"
     inkscape:showpageshadow="2"
     inkscape:pageopacity="0.0"
     inkscape:pagecheckerboard="0"
     inkscape:deskcolor="#d1d1d1"
     inkscape:document-units="px"
     inkscape:zoom="0.49025074"
     inkscape:cx="930.13629"
     inkscape:cy="588.47438"
     inkscape:window-width="1920"
     inkscape:window-height="991"
     inkscape:window-x="-9"
     inkscape:window-y="-9"
     inkscape:window-maximized="1"
     inkscape:current-layer="layer1" />
  <defs
     id="defs1" />
  <g
     inkscape:label="Camada 1"
     inkscape:groupmode="layer"
     id="layer1">
    <path
       id="path1"
       d="m 521.45183,692.95382 c -13.62799,-0.74199 -19.0398,-2.04827 -28.65039,-6.91801 -13.14316,-6.66488 -32.11394,-23.63512 -48.35336,-43.26872 l -4.85196,-5.86494 V 512.85641 c 0,-80.98612 -0.21584,-126.81283 -0.62063,-132.01256 -0.34005,-4.38339 -1.14399,-9.75244 -1.79489,-11.93979 -29.21025,-40.7479 -39.13694,-25.17372 41.255,-24.87654 70.74848,0.28939 70.43565,0.27639 86.06009,3.44515 12.26117,2.48369 25.85533,7.66703 35.00266,13.34622 16.5496,10.27858 27.6535,25.0053 31.99334,42.42818 1.78592,7.17805 2.20765,19.87979 0.90392,27.19261 -3.60234,20.17957 -14.68534,35.44969 -33.57206,46.26557 -6.00227,3.43482 -18.8831,8.42291 -25.14234,9.73517 -2.25815,0.4726 -4.32131,1.06942 -4.58663,1.32258 -0.26233,0.25298 1.12642,0.66874 3.08694,0.92176 4.95759,0.63404 18.48329,4.4948 25.84968,7.37325 7.52021,2.93898 18.8117,9.13824 24.3527,13.36696 11.21286,8.55768 19.4865,18.65051 25.23571,30.97817 3.43326,7.35948 5.966,15.51631 7.68848,24.61739 1.49105,7.88643 1.51828,27.69541 0.0463,36.64096 -2.21957,13.50518 -7.30663,27.56669 -14.10085,38.97608 -4.55975,7.65403 -15.94123,20.60199 -23.27181,26.47387 -6.43858,5.15656 -17.98913,12.1074 -25.56046,15.38152 -19.8295,8.57066 -42.99567,11.98646 -70.96228,10.46082 z m 11.44198,-8.94295 c 7.03199,-1.44442 11.55553,-3.21884 19.75675,-7.74734 20.82012,-11.50097 36.17388,-32.16692 43.78769,-58.94399 3.10789,-10.92647 4.02672,-17.66568 4.35452,-31.97771 0.24905,-10.90916 0.1162,-13.8248 -0.96899,-21.10393 -3.08734,-20.66595 -9.25229,-34.93998 -20.42855,-47.28495 -8.04154,-8.88162 -14.66444,-13.42743 -25.57046,-17.55075 -11.14339,-4.21148 -14.49802,-4.6028 -39.70645,-4.63649 l -22.59073,-0.026 v 86.93828 c 0,80.4669 0.0764,87.21904 1.01186,90.65475 1.79484,6.57331 6.51727,10.67335 14.22406,12.35099 5.17438,1.1231 19.14244,0.76548 26.1303,-0.67208 z M 529.9599,485.05992 c 8.38792,-0.83623 14.02917,-2.53724 20.82939,-6.28307 6.46948,-3.56354 11.75481,-8.04196 16.74855,-14.19368 5.97532,-7.35948 10.35075,-16.78795 12.91964,-27.83623 1.74112,-7.4882 2.21432,-24.28046 0.91922,-32.7163 -4.36712,-28.49885 -22.44392,-47.46033 -48.52243,-50.90206 -8.7339,-1.15412 -40.33578,-0.57368 -41.07362,0.75592 -0.30548,0.54337 -0.53364,28.56534 -0.53895,66.0227 v 65.07586 l 1.32164,0.29013 c 2.71706,0.59348 30.9155,0.43203 37.40588,-0.21323 z"
       style="fill:#30451a;fill-opacity:1;fill-rule:nonzero;stroke:none;stroke-width:0.816122" />
    <path
       id="path2"
       d="m 511.20271,689.5693 c -12.61122,-0.73319 -17.61756,-2.02502 -26.50788,-6.8319 -12.16423,-6.57759 -29.71434,-23.33281 -44.7417,-42.71296 l -4.48665,-5.78915 V 511.77945 c 0,-79.9446 -0.20257,-125.18596 -0.5755,-130.31823 -0.31215,-4.32626 -1.05965,-9.62956 -1.6604,-11.78437 -27.02818,-40.22663 -36.21268,-24.8509 38.17032,-24.55973 65.46219,0.28752 65.17128,0.27378 79.63179,3.4019 11.34336,2.44947 23.92068,7.56773 32.38525,13.17531 15.31495,10.14699 25.58899,24.6834 29.60046,41.88418 1.65442,7.08447 2.04627,19.62658 0.83653,26.84438 -3.3317,19.91771 -13.5845,34.99526 -31.06197,45.66934 -5.55195,3.39225 -17.47074,8.31489 -23.26214,9.61288 -2.0914,0.46654 -3.99984,1.05597 -4.24421,1.30587 -0.24244,0.25 1.04401,0.65782 2.85681,0.90771 4.5846,0.62702 17.10086,4.43593 23.91735,7.28005 6.95793,2.90116 17.40669,9.02004 22.52989,13.19284 10.376,8.45085 18.03167,18.41367 23.35485,30.58218 3.17494,7.26602 5.51839,15.31693 7.11366,24.30279 1.37847,7.78344 1.4027,27.34071 0.0401,36.17307 -2.05254,13.32965 -6.76169,27.21095 -13.04623,38.47176 -4.21997,7.55718 -14.75109,20.33871 -21.53504,26.13574 -5.95572,5.09014 -16.64387,11.95276 -23.651,15.18275 -18.34647,8.46229 -39.78056,11.83263 -65.65809,10.32943 z m 10.58686,-8.82887 c 6.50767,-1.42864 10.69414,-3.17913 18.28304,-7.65012 19.26231,-11.34937 33.4688,-31.75387 40.51507,-58.18691 2.87579,-10.78457 3.7239,-17.43756 4.02741,-31.5688 0.23244,-10.76792 0.10958,-13.6489 -0.89759,-20.83248 -2.85387,-20.40097 -8.55857,-34.49101 -18.90101,-46.67353 -7.44147,-8.77006 -13.56892,-13.25774 -23.66033,-17.32794 -10.30793,-4.15876 -13.41318,-4.54551 -36.73944,-4.57973 l -20.90107,-0.0297 v 85.8276 c 0,79.43418 0.0664,86.09769 0.93679,89.48909 1.65973,6.49158 6.02747,10.53723 13.16243,12.19218 4.78389,1.11028 17.70986,0.75689 24.1747,-0.66132 z m -2.71338,-196.4017 c 7.76056,-0.8226 12.98178,-2.50475 19.27163,-6.20045 5.9873,-3.51507 10.87772,-7.9378 15.49621,-14.00846 5.53071,-7.26955 9.57936,-16.57458 11.95568,-27.48196 1.61092,-7.39317 2.04858,-23.97042 0.85144,-32.29493 -4.04232,-28.13271 -20.7659,-46.85158 -44.89547,-50.25 -8.08102,-1.13754 -37.3212,-0.56569 -38.0069,0.74289 -0.28227,0.54195 -0.49314,28.20196 -0.49647,65.18018 v 64.24085 l 1.22239,0.28418 c 2.51082,0.5859 28.60255,0.42795 34.61081,-0.21211 z"
       style="fill:#efdea2;fill-opacity:1;fill-rule:nonzero;stroke:none;stroke-width:0.829182" />
    <path
       id="path3"
       d="m 488.16804,753.59313 c -62.1554,-5.01826 -114.6514,-39.44437 -145.72196,-95.55626 -7.05892,-12.74732 -8.13683,-15.05648 -24.58216,-52.60645 -11.42569,-26.09454 -16.58613,-36.72127 -23.61117,-48.62663 -16.531,-28.01254 -33.766,-40.78705 -55.47272,-41.12647 l -6.19186,-0.0955 -0.17268,57.70717 c -0.10294,34.18317 0.0764,62.54913 0.43767,69.58186 1.01682,19.82919 3.78897,29.00008 11.07668,36.66339 6.50468,6.83803 13.26008,10.15398 25.48872,12.5105 3.71757,0.72 6.98817,1.55933 7.26413,1.86714 0.27562,0.3087 0.41642,1.56634 0.31215,2.78892 l -0.18928,2.23022 -72.95943,0.16495 -72.95844,0.16753 v -5.82073 l 4.27181,-0.79452 c 12.87154,-2.39423 25.12741,-9.44538 31.15456,-17.92695 3.26994,-4.59815 5.54598,-10.13385 7.14758,-17.37267 l 1.30438,-5.90575 0.1428,-133.22377 c 0.15275,-142.08518 0.22581,-138.15264 -2.64265,-146.5763 -1.88618,-5.55323 -3.91981,-8.92096 -7.91035,-13.09376 -7.27608,-7.61242 -16.66184,-11.58615 -34.20633,-14.47062 -2.18107,-0.3596 -2.21162,-0.40785 -2.21162,-3.33705 v -2.97055 l 88.8771,0.25707 c 62.49476,0.18499 90.36578,0.48671 93.88743,1.02083 25.99977,3.93687 40.20063,9.0788 54.51998,19.73621 14.25264,10.61004 24.15979,26.19097 28.40433,44.67656 1.52788,6.64597 1.66272,8.19479 1.61024,18.46456 -0.0497,9.80846 -0.24905,12.01149 -1.57036,17.58838 -11.65917,49.20198 -58.2532,64.3777 -92.09923,68.80047 -4.2107,0.54813 -8.96701,1.00063 -10.5623,1.00063 -3.8338,0 -3.18459,0.53761 2.10403,1.73998 15.37007,3.5019 34.2495,14.0839 49.43059,27.70821 6.54687,5.87508 20.23898,20.85266 28.55081,31.22678 3.63154,4.535 13.46797,17.29636 21.85882,28.36158 29.19132,38.49279 44.26416,56.917 57.74874,70.58957 27.05874,27.43369 50.55073,42.06219 77.84892,48.48542 10.22524,2.40474 28.22629,3.02129 38.58336,1.32259 26.66463,-4.37542 49.99416,-17.73226 68.75142,-39.36629 19.50706,-22.49705 32.00203,-51.70932 35.36463,-82.68174 1.19082,-10.97317 0.91883,-18.10939 -1.25595,-32.78525 -2.70406,-18.27684 -2.51743,-29.5271 0.6891,-41.33253 1.97549,-7.27304 6.5415,-17.23849 11.03114,-24.06949 4.69458,-7.14674 15.8084,-19.39768 23.25913,-25.63937 8.89597,-7.45105 8.46395,-7.37211 7.06125,-1.28748 -1.28244,5.56638 -1.49732,15.67303 -1.02209,48.27933 0.20917,14.50134 0.10625,16.84119 -1.0052,22.80575 -2.8293,15.17309 -7.89145,24.85443 -19.97264,38.20162 -4.26881,4.7139 -8.49511,9.84179 -9.3897,11.39057 -0.89663,1.54881 -1.7331,2.69943 -1.85862,2.55913 -0.12619,-0.14043 0.45625,-3.48438 1.29278,-7.43092 2.18969,-10.3522 3.56381,-17.75941 5.30984,-28.6124 3.2613,-20.30803 5.76681,-34.06563 7.12297,-39.13653 2.32452,-8.69112 1.14568,-6.46792 -1.75767,3.31335 -4.34846,14.6522 -6.88154,27.24517 -13.91855,69.21178 -2.97673,17.74541 -6.00854,31.96959 -8.23811,38.64977 l -1.15693,3.47736 3.78169,-4.4263 c 2.07908,-2.43194 5.77874,-7.82116 8.21913,-11.9729 8.42472,-14.33384 16.73321,-19.91775 30.78995,-20.69218 6.70922,-0.36999 19.87164,1.25408 20.58198,2.53811 0.17934,0.32282 -0.0963,0.5859 -0.61866,0.5859 -3.04678,0 -8.90523,4.85774 -17.1095,14.18647 -8.87467,10.09963 -14.60496,13.14462 -26.08837,13.87778 -3.48479,0.22288 -7.09576,0.67182 -8.02391,1.00066 -1.52822,0.54109 -1.61058,0.49376 -0.88432,-0.49634 1.316,-1.79173 10.80698,-10.47327 14.6225,-13.37175 1.9473,-1.47953 5.4723,-3.86763 7.83366,-5.30593 2.35808,-1.43915 4.02407,-2.61786 3.69932,-2.62135 -1.36548,-0.007 -13.89134,7.33882 -17.76796,10.41795 -9.54879,7.59492 -19.35794,20.6755 -24.72263,32.97381 -1.78919,4.10438 -4.94624,10.63374 -7.0134,14.50836 -25.73015,48.24597 -71.65403,78.8071 -130.60822,86.91945 -6.7252,0.92874 -29.73332,1.67508 -35.96504,1.17518 z m -3.2899,-26.94349 c -10.0904,-2.61433 -20.7563,-6.97221 -30.90584,-12.62804 -14.81881,-8.25615 -25.00089,-15.99837 -34.87449,-26.50585 -9.91337,-10.55477 -15.24117,-19.2389 -22.40737,-36.52564 -5.26471,-12.69647 -9.34058,-19.75285 -15.11606,-26.16643 -11.05571,-12.27461 -29.40552,-21.884 -48.60041,-25.45693 l -2.199,-0.41138 3.08365,4.59027 c 3.68769,5.48833 6.54752,11.72649 9.8616,21.51828 4.00848,11.84577 7.94624,19.62572 12.93794,25.56659 7.61319,9.06123 13.42877,12.6517 25.38744,15.67299 4.05164,1.0244 8.11559,2.182 9.02815,2.56965 0.91284,0.39031 1.7736,0.7086 1.91375,0.7086 0.52064,0 -10.79441,-16.84821 -15.00511,-22.34267 -2.39825,-3.12828 -7.9685,-9.80144 -12.38143,-14.82758 -7.8031,-8.88934 -7.90404,-9.03671 -3.60166,-5.38133 11.78097,10.0137 19.73415,18.93726 30.5877,34.30593 11.71657,16.59828 14.56479,20.31858 20.13171,26.29975 15.26309,16.39567 34.90901,28.81148 56.17103,35.49516 8.55326,2.6854 17.92107,5.0323 20.16261,5.04631 0.97131,0.003 -0.90657,-0.68234 -4.17421,-1.52772 z M 277.29935,501.73115 c 32.44003,-4.75866 53.51581,-28.38702 58.82568,-65.9546 1.12407,-7.95094 0.84812,-23.71955 -0.55423,-31.65735 -5.56159,-31.47321 -22.93473,-50.33592 -51.69073,-56.11802 -10.73364,-2.15834 -48.29692,-1.84347 -50.74065,0.42442 -0.72592,0.67449 -0.84513,11.60635 -0.84513,77.10132 0,41.97278 0.176,76.51201 0.39516,76.75232 0.82321,0.9244 37.66688,0.46922 44.60957,-0.54812 z"
       style="fill:#30451a;fill-opacity:1;fill-rule:nonzero;stroke:none;stroke-width:0.829182" />
    <text
       x="1326.5637"
       y="450.87198"
       font-family="Georgia, 'Times New Roman', serif"
       font-size="135.772px"
       font-weight="300"
       fill="#f2ebd9"
       letter-spacing="7"
       text-anchor="middle"
       id="text5-4"
       style="stroke-width:3.77143">RAMON BASTOS</text>
    <line
       x1="1503.1227"
       y1="532.31689"
       x2="1817.6207"
       y2="532.31689"
       stroke="#7c5c3a"
       stroke-width="1.21638"
       id="line6-2"
       style="fill:#b43737;fill-opacity:1;fill-rule:evenodd;stroke:#5a7a68;stroke-opacity:1" />
    <line
       x1="827.88898"
       y1="532.31732"
       x2="1142.3873"
       y2="532.31732"
       stroke="#7c5c3a"
       stroke-width="1.21638"
       id="line6-6-0"
       style="stroke:#5a7a68;stroke-opacity:1" />
    <text
       x="1322.9331"
       y="546.98669"
       font-family="'Courier New', monospace"
       font-size="40.6112px"
       fill="#9a9189"
       letter-spacing="4"
       text-anchor="middle"
       id="text6-9"
       style="font-style:normal;font-variant:normal;font-weight:bold;font-stretch:normal;font-size:53.3582px;font-family:'Courier New', monospace;-inkscape-font-specification:'Courier New, monospace, Bold';font-variant-ligatures:normal;font-variant-caps:normal;font-variant-numeric:normal;font-variant-east-asian:normal;letter-spacing:5.25552;text-anchor:middle;fill:#f2ebd9;fill-opacity:1;stroke-width:4.85074">ADVOCACIA</text>
    <text
       x="1322.9331"
       y="672.02838"
       font-family="Georgia, 'Times New Roman', serif"
       font-size="135.821px"
       font-weight="700"
       fill="#7c5c3a"
       letter-spacing="8"
       text-anchor="middle"
       id="text7-7"
       style="fill:#30451a;fill-opacity:1;stroke-width:4.85074">AGRO</text>
    <text
       x="1320.6212"
       y="734.6604"
       font-family="'Courier New', monospace"
       font-size="23.1516px"
       fill="rgba(154,145,137,0.55)"
       letter-spacing="2.5"
       text-anchor="middle"
       id="text8-3"
       style="font-style:italic;font-variant:normal;font-weight:bold;font-stretch:normal;font-size:54.5501px;font-family:'Courier New', monospace;-inkscape-font-specification:'Courier New, monospace, Bold Italic';font-variant-ligatures:normal;font-variant-caps:normal;font-variant-numeric:normal;font-variant-east-asian:normal;letter-spacing:5.89053;text-anchor:middle;fill:#f2ebd9;fill-opacity:1;stroke-width:5.45501">OAB/MA 29.564-A · OAB/TO 5.956</text>
  </g>
</svg>
