<?xml version="1.0" encoding="UTF-8" standalone="no"?>
<!-- Created with Inkscape (http://www.inkscape.org/) -->

<svg
   width="1080"
   height="1080"
   viewBox="0 0 1080 1080"
   version="1.1"
   id="svg1"
   xml:space="preserve"
   sodipodi:docname="Logo Branca Oficial.svg"
   inkscape:version="1.4.2 (f4327f4, 2025-05-13)"
   xmlns:inkscape="http://www.inkscape.org/namespaces/inkscape"
   xmlns:sodipodi="http://sodipodi.sourceforge.net/DTD/sodipodi-0.dtd"
   xmlns="http://www.w3.org/2000/svg"
   xmlns:svg="http://www.w3.org/2000/svg"><sodipodi:namedview
     id="namedview1"
     pagecolor="#ffffff"
     bordercolor="#000000"
     borderopacity="0.25"
     inkscape:showpageshadow="2"
     inkscape:pageopacity="0.0"
     inkscape:pagecheckerboard="0"
     inkscape:deskcolor="#d1d1d1"
     inkscape:document-units="px"
     inkscape:zoom="0.5"
     inkscape:cx="633"
     inkscape:cy="665"
     inkscape:window-width="1920"
     inkscape:window-height="991"
     inkscape:window-x="-9"
     inkscape:window-y="-9"
     inkscape:window-maximized="1"
     inkscape:current-layer="svg1"><inkscape:page
       x="0"
       y="0"
       width="1080"
       height="1080"
       id="page1"
       margin="0"
       bleed="0" /></sodipodi:namedview><defs
     id="defs1" /><g
     inkscape:label="Camada 1"
     inkscape:groupmode="layer"
     id="layer1" /><!-- Monograma grande centralizado --><!-- Espiga topo centralizada --><!-- Nome empilhado --><!-- Linha divisória --><!-- ADVOCACIA --><!-- AGRO destaque --><!-- OAB rodapé --><text
     xml:space="preserve"
     style="text-align:start;writing-mode:lr-tb;direction:ltr;text-anchor:start;fill:#7d5d3b;fill-opacity:1"
     x="534.47394"
     y="958.29895"
     id="text4"><tspan
       sodipodi:role="line"
       id="tspan4"
       x="534.47394"
       y="958.29895" /></text><rect
     style="opacity:0;fill:#000000;fill-rule:evenodd;stroke:#000000"
     id="rect3-8"
     width="709.33881"
     height="867.40869"
     x="503.07471"
     y="309.24548" /><path
     style="fill:#ffffff;fill-opacity:1;stroke-width:0.948495"
     d="m 669.52076,864.16581 c -99.9929,-7.21755 -184.45,-56.72408 -234.4345,-137.41914 -11.3557,-18.33286 -13.0937,-21.65749 -39.5482,-75.66072 -18.3834,-37.52717 -26.6834,-52.80605 -37.9879,-69.93035 -26.5926,-40.28265 -54.3205,-58.65916 -89.2436,-59.14553 l -9.9591,-0.13866 -0.276,82.99347 c -0.1633,49.16144 0.1229,89.9532 0.7037,100.06642 1.6358,28.51621 6.0948,41.70809 17.8227,52.72993 10.4629,9.8326 21.3329,14.60286 41.0028,17.9938 5.984,1.0316 11.2436,2.23932 11.6882,2.68382 0.4444,0.44451 0.6704,2.24967 0.502,4.01143 l -0.3063,3.20323 -117.3765,0.24084 -117.3765,0.24085 v -4.18626 -4.18626 l 6.8766,-1.14281 c 20.7063,-3.44118 40.4219,-13.58215 50.1202,-25.7801 5.2599,-6.61553 8.9225,-14.57612 11.4956,-24.9859 l 2.0992,-8.49212 0.2322,-191.59636 c 0.2478,-204.33589 0.3617,-198.68103 -4.2477,-210.79855 -3.0365,-7.98246 -6.3101,-12.82573 -12.7259,-18.82749 -11.7061,-10.95035 -26.811,-16.66295 -55.0358,-20.81416 -3.5064,-0.51571 -3.5568,-0.58373 -3.5568,-4.79636 v -4.27324 l 142.9859,0.37323 c 100.5415,0.26245 145.3791,0.69721 151.0481,1.46458 41.827,5.66179 64.6728,13.05529 87.7111,28.38573 22.9291,15.25759 38.8675,37.66666 45.6961,64.24784 2.4556,9.55852 2.6727,11.78567 2.5887,26.55792 -0.08,14.1068 -0.3961,17.27205 -2.5236,25.29597 -18.7602,70.75451 -93.7216,92.58284 -148.1682,98.94067 -6.7784,0.79153 -14.4259,1.43917 -16.9939,1.43917 -6.1671,0 -5.122,0.77395 3.3835,2.50586 24.7277,5.03511 55.1006,20.25388 79.5252,39.84708 10.5315,8.44839 32.561,29.98655 45.933,44.90877 5.8436,6.52091 21.6681,24.87432 35.1655,40.78535 46.9615,55.35919 71.2105,81.85601 92.907,101.5191 43.5337,39.45416 81.3244,60.49349 125.2451,69.72828 16.4503,3.45887 45.4095,4.34668 62.0726,1.90303 42.8963,-6.2908 80.4282,-25.50134 110.6052,-56.61287 31.3827,-32.35464 51.48324,-74.36516 56.89354,-118.90878 1.9168,-15.78202 1.4778,-26.04533 -2.0171,-47.15163 -4.3523,-26.28317 -4.051,-42.46154 1.1068,-59.44307 3.1762,-10.45674 10.5234,-24.7878 17.7455,-34.613 7.5561,-10.27946 25.4339,-27.89595 37.4184,-36.87148 14.3136,-10.71974 13.6195,-10.60636 11.3636,-1.85632 -2.0641,8.0059 -2.4088,22.54105 -1.6468,69.43563 0.3389,20.85688 0.1735,24.2177 -1.6156,32.79708 -4.5504,21.82063 -12.6953,35.7471 -32.1313,54.93887 -6.8681,6.78175 -13.6674,14.15313 -15.1093,16.38084 -1.4422,2.22772 -2.7873,3.88517 -2.9893,3.68325 -0.202,-0.20193 0.7332,-5.01238 2.0778,-10.68987 3.526,-14.88716 5.7379,-25.54057 8.5434,-41.14886 5.2493,-29.20377 9.2784,-48.99108 11.4601,-56.28018 3.7412,-12.49884 1.8449,-9.30199 -2.8261,4.76465 -6.9964,21.0692 -11.0714,39.18045 -22.3947,99.53309 -4.7887,25.52288 -9.6647,45.97795 -13.2506,55.58733 l -1.865,4.99798 6.0859,-6.36432 c 3.3472,-3.50036 9.2975,-11.24848 13.2228,-17.21801 13.5552,-20.61491 26.923,-28.64606 49.5347,-29.7597 10.7973,-0.53178 31.9724,1.80233 33.1144,3.65018 0.2868,0.46435 -0.1607,0.84427 -0.9947,0.84427 -4.9032,0 -14.3291,6.98702 -27.5246,20.4027 -14.2827,14.52084 -23.4993,18.90265 -41.974,19.95567 -5.6063,0.31955 -11.4148,0.96758 -12.9075,1.44004 -2.4589,0.77822 -2.5928,0.71098 -1.4228,-0.71504 2.1151,-2.57813 17.3848,-15.0601 23.5217,-19.22771 3.1362,-2.12965 8.8074,-5.56487 12.6028,-7.63382 3.7954,-2.06892 6.474,-3.76378 5.9522,-3.76632 -2.1973,-0.0111 -22.3466,10.55149 -28.5819,14.98256 -15.3657,10.91956 -31.1443,29.73001 -39.7756,47.41876 -2.87974,5.90167 -7.95744,15.29179 -11.28364,20.86693 -41.3955,69.3812 -115.2775,113.33378 -210.1246,125.00365 -10.8158,1.33077 -47.8319,2.40889 -57.8582,1.68519 z m -5.2891,-38.74972 c -16.2346,-3.75915 -33.3938,-10.02572 -49.7238,-18.15928 -23.8394,-11.87378 -40.2229,-23.00488 -56.1033,-38.1172 -15.9511,-15.17943 -24.5221,-27.66796 -36.0507,-52.52757 -8.4693,-18.26248 -15.0276,-28.41082 -24.3205,-37.63372 -17.7843,-17.65015 -47.3042,-31.47337 -78.1873,-36.61261 l -3.5398,-0.58904 4.9626,6.59965 c 5.9353,7.89365 10.5346,16.86487 15.8645,30.94551 6.4495,17.038 12.7838,28.22795 20.8161,36.7725 12.2468,13.02767 21.6059,18.19268 40.8418,22.53958 6.521,1.47357 13.0578,3.13648 14.5263,3.69533 1.4686,0.55886 2.8545,1.01612 3.08,1.01612 0.8348,0 -17.3693,-24.22692 -24.1429,-32.13055 -3.8559,-4.4993 -12.8192,-14.09503 -19.9185,-21.32384 -12.5554,-12.78479 -12.7136,-12.99585 -5.7937,-7.73798 18.9527,14.40116 31.7506,27.2322 49.2082,49.33616 18.8508,23.86794 23.435,29.22084 32.391,37.82232 24.5539,23.58221 56.1573,41.43411 90.3654,51.04489 13.7626,3.86659 28.833,7.2386 32.4364,7.25765 1.565,0.008 -1.4552,-0.98078 -6.7118,-2.19792 z m -333.9559,-323.4624 c 52.1886,-6.84132 86.0973,-40.82471 94.642,-94.85042 1.8082,-11.43378 1.364,-34.11452 -0.892,-45.52785 -8.9469,-45.26507 -36.8978,-72.39134 -83.1592,-80.70597 -17.2711,-3.10413 -77.7016,-2.65315 -81.6324,0.60924 -1.168,0.96934 -1.3611,16.69376 -1.3611,110.88093 0,60.36328 0.2846,110.03595 0.6324,110.38373 1.3268,1.32683 60.6,0.67465 71.7703,-0.78966 z"
     id="path8"
     sodipodi:nodetypes="ssssscccsssscccccssscssssscssssssssssssssssssssssssssssssssscsssssssssssssscssssssssscsssssssscssssssscsssss" /><path
     style="fill:#ffffff;fill-opacity:1;stroke-width:0.948495"
     d="m 710.76343,770.01253 c -22.031,-1.05759 -30.77931,-2.91861 -46.31011,-9.85138 -21.2497,-9.48564 -51.9125,-33.65124 -78.1637,-61.60143 l -7.8415,-8.34895 -0.016,-176.6079 c 0,-115.2998 -0.3552,-180.54498 -1.0047,-187.94927 -0.5472,-6.23776 -1.8518,-13.8852 -2.8992,-16.9943 -47.2223,-58.01581 -63.2648,-35.8411 66.6855,-35.41907 114.36011,0.41265 113.85341,0.3948 139.11361,4.9019 19.8191,3.53624 41.7936,10.91726 56.5798,19.00454 26.7524,14.63216 44.7015,35.59821 51.7135,60.40566 2.8877,10.21662 3.5706,28.30462 1.4613,38.71397 -5.821,28.72829 -23.7357,50.47243 -54.2658,65.86594 -9.7031,4.89239 -30.5235,11.99414 -40.6428,13.86315 -3.6517,0.67448 -6.9868,1.52214 -7.4112,1.88372 -0.4245,0.36159 1.8202,0.95066 4.9879,1.30906 8.0129,0.90654 29.8758,6.40085 41.7859,10.50104 12.1565,4.18506 30.4078,13.00778 39.3627,19.02816 28.9479,19.46171 45.7765,44.48967 53.2231,79.15498 2.4112,11.22467 2.4519,39.43012 0.076,52.16732 -3.5873,19.22521 -11.8122,39.24559 -22.7955,55.48706 -7.3683,10.89594 -25.7685,29.33291 -37.6165,37.69145 -10.4081,7.3429 -29.078,17.23756 -41.3191,21.89819 -32.0525,12.20367 -69.4984,17.06641 -114.7085,14.89616 z m 18.4956,-12.73326 c 11.3676,-2.05815 18.6807,-4.58448 31.9378,-11.03285 33.6543,-16.36984 58.4729,-45.79466 70.7809,-83.91709 5.0219,-15.55476 6.5054,-25.15167 7.0372,-45.52783 0.4052,-15.52969 0.1883,-19.68418 -1.5681,-30.04708 -4.987,-29.4208 -14.9557,-49.74417 -33.0187,-67.31533 -13.0013,-12.64719 -23.7058,-19.11866 -41.3348,-24.98909 -18.0109,-5.99763 -23.4358,-6.55565 -64.1862,-6.60229 l -36.51701,-0.0418 v 123.77882 c 0,114.56165 0.1213,124.17238 1.6371,129.06396 2.8998,9.35997 10.5338,15.19768 22.99491,17.58422 8.361,1.60127 30.9416,1.0914 42.2369,-0.95369 z m -4.7425,-283.25119 c 13.5567,-1.18928 22.6782,-3.61236 33.6716,-8.94458 10.4568,-5.07185 18.9993,-11.44757 27.0708,-20.2045 9.6609,-10.481 16.7334,-23.90286 20.8859,-39.63577 2.8135,-10.65937 3.5761,-34.5659 1.486,-46.5748 -7.0621,-40.5743 -36.2794,-67.57059 -78.4339,-72.4713 -14.1197,-1.6415 -65.20161,-0.81522 -66.39741,1.07399 -0.492,0.77737 -0.8609,40.66969 -0.8692,94.00009 l -0.016,92.64959 2.1342,0.41106 c 4.3912,0.84578 49.97351,0.61678 60.46671,-0.30378 z"
     id="path8-4"
     sodipodi:nodetypes="cssccsssssssssssssscsssccsssscssscscssssssssssccsss" /></svg>
