<?xml version="1.0" encoding="UTF-8" standalone="no"?>
<!-- Created with Inkscape (http://www.inkscape.org/) -->

<svg
   width="1080"
   height="1080"
   viewBox="0 0 1080 1080"
   version="1.1"
   id="svg1"
   xml:space="preserve"
   sodipodi:docname="logoC1.svg"
   inkscape:version="1.4.2 (f4327f4, 2025-05-13)"
   xmlns:inkscape="http://www.inkscape.org/namespaces/inkscape"
   xmlns:sodipodi="http://sodipodi.sourceforge.net/DTD/sodipodi-0.dtd"
   xmlns="http://www.w3.org/2000/svg"
   xmlns:svg="http://www.w3.org/2000/svg"><sodipodi:namedview
     id="namedview1"
     pagecolor="#ffffff"
     bordercolor="#000000"
     borderopacity="0.25"
     inkscape:showpageshadow="2"
     inkscape:pageopacity="0.0"
     inkscape:pagecheckerboard="0"
     inkscape:deskcolor="#d1d1d1"
     inkscape:document-units="px"
     inkscape:zoom="0.5"
     inkscape:cx="232"
     inkscape:cy="465"
     inkscape:window-width="1920"
     inkscape:window-height="991"
     inkscape:window-x="-9"
     inkscape:window-y="-9"
     inkscape:window-maximized="1"
     inkscape:current-layer="svg1"><inkscape:page
       x="0"
       y="0"
       width="1080"
       height="1080"
       id="page1"
       margin="0"
       bleed="0" /></sodipodi:namedview><defs
     id="defs1" /><g
     inkscape:label="Camada 1"
     inkscape:groupmode="layer"
     id="layer1" /><!-- Monograma grande centralizado --><!-- Espiga topo centralizada --><!-- Nome empilhado --><!-- Linha divisória --><!-- ADVOCACIA --><!-- AGRO destaque --><!-- OAB rodapé --><text
     xml:space="preserve"
     style="text-align:start;writing-mode:lr-tb;direction:ltr;text-anchor:start;fill:#7d5d3b;fill-opacity:1"
     x="534.47394"
     y="958.29895"
     id="text4"><tspan
       sodipodi:role="line"
       id="tspan4"
       x="534.47394"
       y="958.29895" /></text><rect
     style="opacity:0;fill:#000000;fill-rule:evenodd;stroke:#000000"
     id="rect3-8"
     width="709.33881"
     height="867.40869"
     x="503.07471"
     y="309.24548" /><path
     id="path1"
     d="m 646.10108,493.60885 c -13.32174,-0.64845 -18.61169,-1.78982 -28.00611,-6.04509 -12.84768,-5.82389 -31.39154,-20.65275 -47.26593,-37.80892 l -4.74279,-5.12488 V 336.23674 c 0,-70.76699 -0.21178,-110.81112 -0.60671,-115.35473 -0.33236,-3.83027 -1.11842,-8.52185 -1.75452,-10.43321 -28.55325,-35.60618 -38.25665,-21.99721 40.32696,-21.73753 69.15758,0.25289 68.85159,0.24157 84.12456,3.01046 11.98549,2.17028 25.27407,6.69957 34.21551,11.66215 16.17737,8.98156 27.03162,21.85 31.27397,37.07443 1.7455,6.27229 2.15775,17.37129 0.8833,23.76135 -3.5211,17.63324 -14.355,30.97651 -32.81671,40.42761 -5.86727,3.0014 -18.45871,7.36008 -24.57694,8.50674 -2.20748,0.41291 -4.22428,0.93455 -4.48353,1.15572 -0.25624,0.22117 1.10109,0.58428 3.01766,0.80546 4.84605,0.55408 18.06755,3.92765 25.26803,6.4429 7.35122,2.5681 18.38862,7.98512 23.80519,11.68025 10.96051,7.47785 19.04806,16.29712 24.66813,27.06925 3.35606,6.43082 5.83183,13.55842 7.51552,21.51107 1.45759,6.8913 1.48395,24.2007 0.0445,32.01748 -2.16979,11.80105 -7.14245,24.08822 -13.78372,34.05793 -4.45717,6.68823 -15.58273,18.00238 -22.74856,23.13331 -6.29384,4.50587 -17.58444,10.57963 -24.98541,13.44062 -19.38344,7.48917 -42.02873,10.47397 -69.36633,9.14085 z m 11.18435,-7.81452 c 6.87414,-1.26215 11.29588,-2.81268 19.3126,-6.76976 20.35189,-10.04972 35.36032,-28.10796 42.80274,-51.50623 3.03802,-9.54772 3.93637,-15.43654 4.25669,-27.94263 0.24495,-9.53262 0.1153,-12.08035 -0.94736,-18.44097 -3.01766,-18.05824 -9.04395,-30.53112 -19.96903,-41.31836 -7.8607,-7.76094 -14.33467,-11.73311 -24.99522,-15.33614 -10.89268,-3.68005 -14.17187,-4.02201 -38.81361,-4.05145 l -22.08231,-0.0234 v 75.9681 c 0,70.31331 0.0732,76.21345 0.98881,79.2156 1.75452,5.74388 6.37071,9.32656 13.90431,10.79252 5.05783,0.98135 18.71194,0.66883 25.54238,-0.58728 z M 654.41775,311.9477 c 8.19908,-0.73072 13.71363,-2.21707 20.36093,-5.49024 6.32399,-3.11386 11.49033,-7.02718 16.37181,-12.40267 5.84088,-6.43082 10.11792,-14.66959 12.62912,-24.32375 1.70177,-6.5433 2.16452,-21.21666 0.89837,-28.58806 -4.26875,-24.90274 -21.93911,-41.47161 -47.43099,-44.47904 -8.53749,-1.00853 -39.4286,-0.50125 -40.14985,0.66051 -0.2977,0.47482 -0.52154,24.96087 -0.52681,57.69171 v 56.86437 l 1.29177,0.25363 c 2.6559,0.51862 30.22036,0.37744 36.56469,-0.18646 z"
     style="fill:#30451a;fill-opacity:1;fill-rule:nonzero;stroke:none;stroke-width:0.754267" /><path
     id="path2"
     d="m 636.08228,490.65137 c -12.32741,-0.64066 -17.22128,-1.76949 -25.91163,-5.96982 -11.89061,-5.74759 -29.046,-20.3886 -43.73529,-37.32329 l -4.38578,-5.05865 V 335.29569 c 0,-69.85691 -0.19773,-109.38956 -0.56251,-113.87422 -0.30577,-3.78037 -1.03609,-8.41447 -1.62312,-10.29737 -26.42049,-35.15071 -35.39822,-21.71515 37.3118,-21.46072 63.98978,0.25137 63.70545,0.2391 77.84068,2.97265 11.08824,2.1404 23.38271,6.61279 31.65693,11.5128 14.97055,8.86661 25.01349,21.56877 28.93487,36.59908 1.617,6.19054 2.00016,17.15003 0.8177,23.45705 -3.25697,17.40445 -13.27923,30.57946 -30.36335,39.90662 -5.42724,2.96422 -17.07799,7.26572 -22.73897,8.39991 -2.04461,0.40771 -3.90989,0.92269 -4.14899,1.14109 -0.2368,0.21841 1.02077,0.57476 2.79256,0.79317 4.48158,0.54793 16.71627,3.87616 23.37964,6.36142 6.80131,2.53507 17.01515,7.88186 22.02321,11.52812 10.14257,7.3845 17.62593,16.09018 22.82941,26.72321 3.1037,6.34916 5.39429,13.38421 6.95381,21.23617 1.34724,6.80131 1.37098,23.89079 0.0391,31.60865 -2.0063,11.64767 -6.60973,23.77738 -12.75276,33.61725 -4.12523,6.60359 -14.41953,17.77229 -21.05071,22.83783 -5.82192,4.44787 -16.2695,10.44452 -23.11908,13.26696 -17.93401,7.39446 -38.88586,10.33952 -64.18138,9.02601 z m 10.34873,-7.71479 c 6.36143,-1.24837 10.45371,-2.778 17.87192,-6.68484 18.8291,-9.91725 32.71602,-27.74703 39.60392,-50.84466 2.81096,-9.42374 3.64015,-15.23723 3.93672,-27.58533 0.22761,-9.40919 0.10805,-11.92663 -0.87746,-18.20376 -2.7895,-17.82671 -8.36619,-30.13881 -18.47581,-40.7841 -7.27414,-7.66344 -13.26388,-11.58482 -23.12827,-15.14143 -10.0759,-3.634 -13.1114,-3.97197 -35.91321,-4.00185 l -20.43075,-0.0245 v 74.99755 c 0,69.4109 0.0659,75.23358 0.91578,78.19704 1.62235,5.67248 5.89166,9.20763 12.86616,10.65373 4.67624,0.97018 17.31172,0.66134 23.631,-0.57783 z m -2.65232,-171.61905 c 7.58605,-0.71883 12.68991,-2.18868 18.83829,-5.41806 5.85257,-3.07151 10.63302,-6.93618 15.14756,-12.24083 5.40657,-6.35223 9.36397,-14.48313 11.68675,-24.01417 1.57485,-6.46028 2.00247,-20.94573 0.83225,-28.21986 -3.95126,-24.58281 -20.29893,-40.93967 -43.88549,-43.90926 -7.89948,-0.99396 -36.48183,-0.49429 -37.15238,0.64909 -0.27588,0.4736 -0.48203,24.64334 -0.48509,56.95551 v 56.13474 l 1.19473,0.24829 c 2.45459,0.51193 27.95931,0.37398 33.83258,-0.18545 z"
     style="fill:#efdea2;fill-opacity:1;fill-rule:nonzero;stroke:none;stroke-width:0.766341" /><path
     id="path3"
     d="m 613.56555,546.59646 c -60.75733,-4.38503 -112.07254,-34.46713 -142.4443,-83.49862 -6.90017,-11.13882 -7.9539,-13.1566 -24.02951,-45.96841 -11.1687,-22.80183 -16.21279,-32.08763 -23.08,-42.49075 -16.15914,-24.47781 -33.00646,-35.64039 -54.22502,-35.93696 l -6.05258,-0.0835 -0.16783,50.42548 c -0.0988,29.86981 0.0751,54.65646 0.42762,60.80177 0.99395,17.32707 3.70375,25.34073 10.82768,32.03705 6.35836,5.97518 12.96195,8.87274 24.9154,10.93191 3.63401,0.62916 6.83119,1.36255 7.10094,1.63153 0.26899,0.26977 0.40694,1.3687 0.30501,2.43699 l -0.18546,1.94881 -71.31832,0.14408 -71.31757,0.14636 v -5.08623 l 4.17582,-0.6943 c 12.58184,-2.09213 24.5621,-8.25353 30.45377,-15.66485 3.19642,-4.01795 5.42112,-8.85512 6.98676,-15.18051 l 1.27519,-5.16058 0.14025,-116.41312 c 0.15021,-124.15625 0.21917,-120.71996 -2.58335,-128.0807 -1.84383,-4.8525 -3.83172,-7.79527 -7.73242,-11.44153 -7.11244,-6.65187 -16.28712,-10.12418 -33.43714,-12.64468 -2.13198,-0.31421 -2.16187,-0.35636 -2.16187,-2.91595 v -2.5956 l 86.8782,0.22453 c 61.08916,0.1617 88.33348,0.42532 91.77591,0.89203 25.41504,3.44012 39.2966,7.93319 53.29389,17.24582 13.93214,9.27123 23.61645,22.8861 27.76543,39.03912 1.49361,5.80736 1.62542,7.16073 1.57407,16.13463 -0.0506,8.57079 -0.24215,10.49585 -1.53498,15.36904 -11.39708,42.99347 -56.94324,56.25429 -90.02787,60.11897 -4.11603,0.47896 -8.76545,0.87441 -10.32496,0.87441 -3.74742,0 -3.11289,0.46976 2.05686,1.52041 15.02419,3.06002 33.4793,12.30673 48.3188,24.2119 6.39976,5.13374 19.78396,18.22138 27.90874,27.28647 3.54971,3.96277 13.16503,15.11385 21.36722,24.78281 28.53485,33.63564 43.26858,49.735 56.44972,61.68231 26.45038,23.97203 49.4139,36.75466 76.09802,42.36737 9.99543,2.10132 27.59147,2.64006 37.71564,1.15565 26.06492,-3.82329 48.86981,-15.49472 67.20537,-34.39892 19.06818,-19.65827 31.28218,-45.18444 34.56903,-72.24867 1.16408,-9.5885 0.89818,-15.82425 -1.22768,-28.64826 -2.64313,-15.97062 -2.46072,-25.80128 0.67362,-36.11705 1.93117,-6.3553 6.39434,-15.06328 10.7832,-21.03234 4.58889,-6.24494 15.45264,-16.95 22.73599,-22.40408 8.69565,-6.51085 8.2734,-6.44189 6.90241,-1.125 -1.2537,4.86399 -1.46375,13.69536 -0.9993,42.18728 0.20612,12.6715 0.10423,14.71611 -0.98245,19.92803 -2.76574,13.25853 -7.71403,21.71821 -19.52341,33.38121 -4.17272,4.11909 -8.30414,8.59991 -9.17849,9.95328 -0.87675,1.35336 -1.69439,2.35881 -1.81706,2.23619 -0.12255,-0.12261 0.44602,-3.0447 1.26378,-6.49324 2.14035,-9.04592 3.48377,-15.51848 5.19046,-25.002 3.18793,-17.74547 5.63723,-29.76712 6.96293,-34.19813 2.27226,-7.59447 1.11962,-5.65179 -1.7181,2.89526 -4.25091,12.80332 -6.72696,23.80725 -13.60568,60.47838 -2.90982,15.50622 -5.8733,27.93557 -8.05276,33.7728 l -1.13113,3.03857 3.69683,-3.86774 c 2.03237,-2.12508 5.64871,-6.83427 8.0344,-10.46214 8.23512,-12.52514 16.35684,-17.40445 30.09741,-18.08114 6.55835,-0.32339 19.42451,1.09588 20.11884,2.2178 0.17399,0.28202 -0.0958,0.51192 -0.60467,0.51192 -2.97801,0 -8.70491,4.24479 -16.72467,12.3964 -8.67506,8.82522 -14.27625,11.48597 -25.50167,12.12663 -3.40636,0.19466 -6.93618,0.58703 -7.84349,0.87441 -1.49366,0.47283 -1.57413,0.43144 -0.86447,-0.43376 1.28666,-1.56564 10.56405,-9.15169 14.29386,-11.68446 1.90357,-1.29282 5.34907,-3.37958 7.65732,-4.63638 2.3051,-1.25757 3.93366,-2.28754 3.6164,-2.2906 -1.335,-0.006 -13.57893,6.41277 -17.3685,9.1034 -9.33404,6.63655 -18.92255,18.06658 -24.16665,28.81304 -1.74879,3.58648 -4.83486,9.29192 -6.85572,12.67763 -25.15143,42.15815 -70.04236,68.86296 -127.67071,75.95165 -6.57371,0.81156 -29.06438,1.46372 -35.15606,1.0269 z m -3.21558,-23.54365 c -9.86362,-2.28447 -20.28974,-6.09244 -30.21084,-11.03459 -14.48545,-7.21437 -24.43873,-13.97966 -34.09008,-23.16124 -9.69042,-9.22295 -14.8985,-16.8113 -21.90366,-31.91671 -5.146,-11.09439 -9.13023,-17.26039 -14.77589,-22.86466 -10.80699,-10.72577 -28.74405,-19.1226 -47.50722,-22.2447 l -2.1496,-0.35942 3.01404,4.01105 c 3.60487,4.79579 6.4005,10.24681 9.63983,18.80305 3.91832,10.351 7.76767,17.14925 12.64699,22.34047 7.44198,7.91787 13.12672,11.05529 24.81654,13.69534 3.96047,0.8951 7.9332,1.90668 8.82523,2.24539 0.89202,0.34103 1.73346,0.6192 1.87064,0.6192 0.50885,0 -10.5518,-14.72224 -14.66784,-19.52339 -2.34424,-2.73355 -7.78912,-8.56466 -12.10288,-12.95659 -7.62743,-7.76766 -7.72628,-7.89641 -3.52059,-4.70229 11.51586,8.75013 19.29043,16.54768 29.89971,29.9771 11.45301,14.50385 14.23714,17.75468 19.67896,22.98116 14.91996,14.3268 34.1238,25.17594 54.90783,31.01626 8.36082,2.34655 17.51787,4.39729 19.70885,4.40955 0.9495,0.003 -0.8859,-0.59621 -4.08002,-1.33498 z M 407.43955,326.5153 c 31.71057,-4.15819 52.31222,-24.80505 57.50266,-57.63218 1.09894,-6.94769 0.82919,-20.72656 -0.54181,-27.66274 -5.43645,-27.50182 -22.41864,-43.98435 -50.52817,-49.03687 -10.49202,-1.88597 -47.21066,-1.61085 -49.59935,0.37091 -0.70964,0.58933 -0.82612,10.14181 -0.82612,67.37243 0,36.67649 0.1732,66.85744 0.38624,67.06741 0.80466,0.80774 36.81979,0.40999 43.60655,-0.47896 z"
     style="fill:#30451a;fill-opacity:1;fill-rule:nonzero;stroke:none;stroke-width:0.766341" /><text
     x="554.02399"
     y="663.36053"
     font-family="Georgia, 'Times New Roman', serif"
     font-size="118.906px"
     font-weight="300"
     fill="#f2ebd9"
     letter-spacing="7"
     text-anchor="middle"
     id="text5-4"
     style="stroke-width:3.30293">RAMON BASTOS</text><line
     x1="708.65021"
     y1="734.68805"
     x2="984.08026"
     y2="734.68805"
     stroke="#7c5c3a"
     stroke-width="1.06528"
     id="line6-2"
     style="fill:#b43737;fill-opacity:1;fill-rule:evenodd;stroke:#5a7a68;stroke-opacity:1" /><line
     x1="117.29626"
     y1="734.68848"
     x2="392.72659"
     y2="734.68848"
     stroke="#7c5c3a"
     stroke-width="1.06528"
     id="line6-6-0"
     style="stroke:#5a7a68;stroke-opacity:1" /><text
     x="550.84436"
     y="747.53552"
     font-family="'Courier New', monospace"
     font-size="40.6112px"
     fill="#9a9189"
     letter-spacing="4"
     text-anchor="middle"
     id="text6-9"
     style="font-style:normal;font-variant:normal;font-weight:bold;font-stretch:normal;font-size:46.7299px;font-family:'Courier New', monospace;-inkscape-font-specification:'Courier New, monospace, Bold';font-variant-ligatures:normal;font-variant-caps:normal;font-variant-numeric:normal;font-variant-east-asian:normal;letter-spacing:4.60266;text-anchor:middle;fill:#f2ebd9;fill-opacity:1;stroke-width:4.24817">ADVOCACIA</text><text
     x="550.84436"
     y="857.04413"
     font-family="Georgia, 'Times New Roman', serif"
     font-size="118.949px"
     font-weight="700"
     fill="#7c5c3a"
     letter-spacing="8"
     text-anchor="middle"
     id="text7-7"
     style="fill:#30451a;fill-opacity:1;stroke-width:4.24817">AGRO</text><text
     x="548.8197"
     y="911.89581"
     font-family="'Courier New', monospace"
     font-size="23.1516px"
     fill="rgba(154,145,137,0.55)"
     letter-spacing="2.5"
     text-anchor="middle"
     id="text8-3"
     style="font-style:italic;font-variant:normal;font-weight:bold;font-stretch:normal;font-size:47.7737px;font-family:'Courier New', monospace;-inkscape-font-specification:'Courier New, monospace, Bold Italic';font-variant-ligatures:normal;font-variant-caps:normal;font-variant-numeric:normal;font-variant-east-asian:normal;letter-spacing:5.15879;text-anchor:middle;fill:#f2ebd9;fill-opacity:1;stroke-width:4.77737">OAB/MA 29.564-A · OAB/TO 5.956</text></svg>
