<?xml version="1.0" encoding="UTF-8" standalone="no"?>
<!-- Created with Inkscape (http://www.inkscape.org/) -->

<svg
   width="1080"
   height="1080"
   viewBox="0 0 1080 1080"
   version="1.1"
   id="svg1"
   xml:space="preserve"
   sodipodi:docname="logo3final.svg"
   inkscape:version="1.4.2 (f4327f4, 2025-05-13)"
   xmlns:inkscape="http://www.inkscape.org/namespaces/inkscape"
   xmlns:sodipodi="http://sodipodi.sourceforge.net/DTD/sodipodi-0.dtd"
   xmlns="http://www.w3.org/2000/svg"
   xmlns:svg="http://www.w3.org/2000/svg"><sodipodi:namedview
     id="namedview1"
     pagecolor="#ffffff"
     bordercolor="#000000"
     borderopacity="0.25"
     inkscape:showpageshadow="2"
     inkscape:pageopacity="0.0"
     inkscape:pagecheckerboard="0"
     inkscape:deskcolor="#d1d1d1"
     inkscape:document-units="px"
     inkscape:zoom="0.5"
     inkscape:cx="232"
     inkscape:cy="465"
     inkscape:window-width="1920"
     inkscape:window-height="991"
     inkscape:window-x="-9"
     inkscape:window-y="-9"
     inkscape:window-maximized="1"
     inkscape:current-layer="svg1"><inkscape:page
       x="0"
       y="0"
       width="1080"
       height="1080"
       id="page1"
       margin="0"
       bleed="0" /></sodipodi:namedview><defs
     id="defs1" /><g
     inkscape:label="Camada 1"
     inkscape:groupmode="layer"
     id="layer1" /><!-- Monograma grande centralizado --><!-- Espiga topo centralizada --><!-- Nome empilhado --><!-- Linha divisória --><!-- ADVOCACIA --><!-- AGRO destaque --><!-- OAB rodapé --><text
     xml:space="preserve"
     style="text-align:start;writing-mode:lr-tb;direction:ltr;text-anchor:start;fill:#7d5d3b;fill-opacity:1"
     x="534.47394"
     y="958.29895"
     id="text4"><tspan
       sodipodi:role="line"
       id="tspan4"
       x="534.47394"
       y="958.29895" /></text><rect
     style="opacity:0;fill:#000000;fill-rule:evenodd;stroke:#000000"
     id="rect3-8"
     width="709.33881"
     height="867.40869"
     x="503.07471"
     y="309.24548" /><path
     id="path1"
     d="m 715.86888,760.75974 c -22.76276,-1.108 -31.80165,-3.05825 -47.8538,-10.32919 -21.95273,-9.95123 -53.63847,-35.28919 -80.7629,-64.60379 l -8.10398,-8.75684 V 491.8593 c 0,-120.91897 -0.36186,-189.34204 -1.03668,-197.10568 -0.56791,-6.54475 -1.91105,-14.56121 -2.99794,-17.82713 -48.7887,-60.83999 -65.36882,-37.58644 68.90636,-37.14273 118.16898,0.4321 117.64613,0.41276 143.74293,5.14394 20.47952,3.70834 43.18559,11.44749 58.46377,19.92701 27.64213,15.34673 46.18869,37.33493 53.43758,63.34877 2.98251,10.71742 3.68691,29.68219 1.50929,40.60084 -6.0165,30.12977 -24.52829,52.92931 -56.07366,69.07832 -10.02535,5.12847 -31.54023,12.57611 -41.99441,14.5354 -3.7719,0.70554 -7.21799,1.59685 -7.66098,1.97477 -0.43784,0.37792 1.88144,0.99836 5.15625,1.37628 8.28041,0.94676 30.87188,6.71113 43.17529,11.00893 12.56097,4.38809 31.42047,13.64411 40.67572,19.95796 18.72815,12.77733 32.54727,27.84674 42.15023,46.253 5.73447,10.98829 9.96481,23.16714 12.84171,36.75578 2.49056,11.77511 2.53562,41.35154 0.076,54.70801 -3.70751,20.16435 -12.20425,41.15934 -23.55214,58.1945 -7.61593,11.42813 -26.62609,30.76051 -38.87027,39.52768 -10.75423,7.69916 -30.0464,18.07735 -42.69238,22.9659 -33.12033,12.79668 -71.81414,17.89678 -118.52568,15.61889 z m 19.11061,-13.3526 c 11.74579,-2.15664 19.30118,-4.80601 32.99927,-11.56745 34.77512,-17.17187 60.4199,-48.02784 73.13671,-88.00826 5.19103,-16.31411 6.72604,-26.37629 7.27335,-47.74535 0.41854,-16.28831 0.19703,-20.64158 -1.61874,-31.50993 -5.15624,-30.85596 -15.45331,-52.16828 -34.12092,-70.60034 -13.43151,-13.26104 -24.49352,-20.04827 -42.70912,-26.20475 -18.61224,-6.28806 -24.21535,-6.87236 -66.3205,-6.92266 l -37.73186,-0.04 v 129.80608 c 0,120.14376 0.12492,130.22529 1.68958,135.35505 2.99793,9.81452 10.88557,15.9362 23.75817,18.44109 8.64227,1.67682 31.97294,1.14282 43.64406,-1.00349 z M 730.0795,450.35683 c 14.00971,-1.24857 23.43238,-3.78829 34.79056,-9.38112 10.80574,-5.32064 19.63344,-12.00729 27.97437,-21.19235 9.98027,-10.98829 17.28841,-25.0658 21.57928,-41.56179 2.9078,-11.18048 3.6985,-36.25273 1.53504,-48.84818 -7.29398,-42.55112 -37.48718,-70.86219 -81.04495,-76.00098 -14.58794,-1.72326 -67.37132,-0.85647 -68.60372,1.12861 -0.50868,0.81132 -0.89115,42.65043 -0.90016,98.57736 v 97.16368 l 2.20725,0.43338 c 4.53812,0.88614 51.63727,0.64493 62.47778,-0.31861 z"
     style="fill:#30451a;fill-opacity:1;fill-rule:nonzero;stroke:none;stroke-width:1.28881" /><path
     id="path2"
     d="m 698.74985,755.70631 c -21.06375,-1.09469 -29.42588,-3.02351 -44.275,-10.20058 -20.31738,-9.82086 -49.63066,-34.83783 -74.73013,-63.77399 l -7.49396,-8.64367 V 490.25134 c 0,-119.36393 -0.33784,-186.91305 -0.96114,-194.57594 -0.52247,-6.45949 -1.77036,-14.37773 -2.77341,-17.59504 -45.14448,-60.06171 -60.48465,-37.10448 63.75435,-36.66975 109.33881,0.42951 108.85299,0.40855 133.00574,5.07935 18.94638,3.65728 39.95384,11.29922 54.09194,19.67182 25.58004,15.1503 42.74035,36.85438 49.44078,62.53655 2.76294,10.57773 3.41765,29.30412 1.39718,40.08087 -5.56515,29.73884 -22.69009,52.25086 -51.88159,68.18812 -9.2735,5.06494 -29.18102,12.41487 -38.8539,14.35286 -3.49361,0.69663 -6.6808,1.57657 -7.08934,1.94976 -0.40463,0.3732 1.74418,0.98209 4.77162,1.35528 7.65764,0.93625 28.56295,6.62317 39.9486,10.86972 11.62134,4.33164 29.07365,13.46766 37.63088,19.698 17.33053,12.61783 30.11728,27.49315 39.00842,45.66173 5.30326,10.84876 9.21719,22.86947 11.88192,36.28607 2.30201,11.62134 2.34259,40.822 0.0668,54.00944 -3.42814,19.90227 -11.29397,40.6282 -21.79051,57.4415 -7.04876,11.28351 -24.63854,30.36738 -35.9692,39.02282 -9.94786,7.60004 -27.79954,17.84646 -39.50338,22.66914 -30.64368,12.63486 -66.44395,17.66707 -109.66618,15.42267 z m 17.68278,-13.1822 c 10.86972,-2.13308 17.86217,-4.74674 30.5376,-11.42231 32.17312,-16.94554 55.9016,-47.41113 67.6709,-86.87786 4.80306,-16.10226 6.21988,-26.03573 6.72664,-47.13484 0.3889,-16.07739 0.18463,-20.37892 -1.49932,-31.1046 -4.76638,-30.46035 -14.29523,-51.49793 -31.56945,-69.68745 -12.42927,-13.09447 -22.6639,-19.7949 -39.5191,-25.87205 -17.21661,-6.20939 -22.40334,-6.78687 -61.36461,-6.83793 l -34.90985,-0.0419 v 128.14771 c 0,118.60182 0.11262,128.55099 1.56479,133.61463 2.7721,9.69251 10.06703,15.733 21.9843,18.20393 7.99025,1.65775 29.5804,1.13005 40.3781,-0.98732 z m -4.53199,-293.24405 c 12.96221,-1.22826 21.68313,-3.73979 32.18881,-9.25779 10.00025,-5.24827 18.16858,-11.85181 25.88253,-20.9158 9.23814,-10.85401 16.00014,-24.74722 19.96906,-41.03282 2.69092,-11.03863 3.42159,-35.78981 1.42206,-48.21906 -6.7515,-42.00444 -34.68463,-69.95327 -74.98678,-75.02738 -13.49778,-1.69836 -62.33621,-0.8446 -63.48197,1.1091 -0.4714,0.80924 -0.82365,42.10788 -0.82888,97.3194 v 95.91697 l 2.04143,0.42426 c 4.19415,0.87472 47.77384,0.63902 57.80945,-0.31688 z"
     style="fill:#efdea2;fill-opacity:1;fill-rule:nonzero;stroke:none;stroke-width:1.30944" /><path
     id="path3"
     d="M 660.2757,851.29922 C 556.46014,843.80656 468.77827,792.40553 416.88228,708.62582 405.09202,689.59301 403.29152,686.14525 375.82326,630.07998 356.73939,591.11869 348.1206,575.25212 336.38665,557.47639 308.77565,515.65135 279.98878,496.57795 243.73282,496.0712 l -10.34201,-0.14274 -0.28676,86.1616 c -0.16892,51.03831 0.12832,93.39104 0.73067,103.8915 1.69835,29.6066 6.32856,43.29948 18.50117,54.74143 10.86447,10.20975 22.14797,15.16077 42.57273,18.67926 6.2094,1.07504 11.67241,2.32818 12.13333,2.7878 0.45962,0.46094 0.69533,2.33868 0.52116,4.16404 l -0.31689,3.32993 -121.86104,0.24618 -121.859735,0.2501 v -8.69081 l 7.135185,-1.18635 c 21.49849,-3.57479 41.96907,-14.10274 52.0361,-26.7664 5.4617,-6.86543 9.26303,-15.13066 11.93823,-25.93882 l 2.17891,-8.81783 0.23964,-198.91413 c 0.25665,-212.14477 0.3745,-206.27322 -4.41415,-218.85045 -3.15052,-8.29143 -6.54724,-13.3197 -13.21232,-19.55004 -12.15296,-11.366 -27.82967,-17.29911 -57.133774,-21.60587 -3.642893,-0.53688 -3.693956,-0.6089 -3.693956,-4.98245 v -4.43509 l 148.44806,0.38366 c 104.38255,0.27629 150.93468,0.72674 156.81673,1.5242 43.42648,5.87811 67.1458,13.55539 91.06284,29.46779 23.80574,15.84168 40.35323,39.10531 47.44257,66.70583 2.55211,9.923 2.77734,12.23548 2.6896,27.5691 -0.0864,14.64485 -0.41378,17.93418 -2.62282,26.26095 -19.47409,73.46259 -97.29845,96.12125 -153.82987,102.72479 -7.03304,0.81841 -14.97746,1.49409 -17.64218,1.49409 -6.40319,0 -5.31897,0.80269 3.51455,2.59793 25.6717,5.22863 57.20581,21.02841 82.56193,41.37066 10.9352,8.77199 33.80468,31.13473 47.68743,46.62417 6.06536,6.77115 22.49499,25.82491 36.50999,42.34619 48.75726,57.47294 73.93268,84.98179 96.45517,105.39606 45.19556,40.96081 84.43312,62.80238 130.02806,72.39277 17.07911,3.59051 47.14532,4.51105 64.44442,1.97465 44.5369,-6.53283 83.50342,-26.4757 114.83325,-58.77715 32.58165,-33.58992 53.45161,-77.20628 59.06782,-123.4507 1.98904,-16.3838 1.53471,-27.03878 -2.09773,-48.95106 -4.51629,-27.28886 -4.20462,-44.08644 1.151,-61.71291 3.29977,-10.85925 10.92597,-25.73848 18.42517,-35.93777 7.841,-10.67067 26.4038,-28.96233 38.8488,-38.28167 14.8582,-11.12505 14.1367,-11.00721 11.7941,-1.92227 -2.1422,8.31106 -2.5011,23.40113 -1.7075,72.08504 0.3522,21.65171 0.1781,25.14531 -1.6787,34.05086 -4.7258,22.65474 -13.1809,37.10973 -33.3595,57.0382 -7.1299,7.03826 -14.1892,14.6946 -15.6832,17.00708 -1.4981,2.31249 -2.8952,4.03048 -3.1048,3.82097 -0.2094,-0.20951 0.7621,-5.20244 2.1594,-11.09494 3.6572,-15.4567 5.9527,-26.5163 8.8689,-42.7207 5.4472,-30.32155 9.6323,-50.86284 11.8975,-58.43407 3.8826,-12.97661 1.9131,-9.65717 -2.9357,4.9471 -7.2635,21.87693 -11.4943,40.67926 -23.2479,103.33891 -4.972,26.49535 -10.03567,47.73327 -13.7597,57.70732 l -1.93274,5.19197 6.31674,-6.60878 c 3.4727,-3.63111 9.6519,-11.67766 13.7283,-17.87657 14.0713,-21.40161 27.9488,-29.73884 51.4272,-30.8951 11.2062,-0.55258 33.1905,1.87252 34.3769,3.78955 0.2973,0.48188 -0.1637,0.87471 -1.0332,0.87471 -5.0885,0 -14.874,7.25303 -28.5773,21.18162 -14.823,15.07958 -24.3937,19.62598 -43.5745,20.72067 -5.8204,0.33261 -11.8518,1.00305 -13.4021,1.49409 -2.5522,0.80793 -2.6897,0.73721 -1.4771,-0.74115 2.1985,-2.6752 18.0507,-15.63743 24.4238,-19.96513 3.2526,-2.20905 9.1399,-5.77467 13.084,-7.92216 3.9387,-2.1488 6.7214,-3.9087 6.1793,-3.91393 -2.2811,-0.009 -23.2022,10.95745 -29.6774,15.5549 -15.949,11.33982 -32.33282,30.87022 -41.29336,49.2326 -2.98815,6.1282 -8.2613,15.87704 -11.71431,21.66217 -42.97604,72.03528 -119.68081,117.66558 -218.1499,129.77796 -11.23244,1.38671 -49.66207,2.50105 -60.07087,1.75466 z m -5.49444,-40.22883 c -16.85389,-3.90346 -34.66892,-10.4101 -51.62102,-18.85472 -24.75116,-12.32713 -41.75825,-23.88693 -58.24943,-39.57542 -16.55795,-15.75918 -25.45695,-28.72532 -37.4266,-54.53582 -8.79294,-18.95688 -15.60075,-29.49268 -25.24745,-39.06866 -18.46581,-18.32702 -49.11472,-32.67463 -81.17521,-38.00932 l -3.673,-0.61413 5.15006,6.85364 c 6.15963,8.19453 10.93648,17.50862 16.47151,32.1286 6.69521,17.68669 13.27255,29.30279 21.6098,38.17299 12.71605,13.5292 22.42953,18.89007 42.40383,23.40112 6.76722,1.52944 13.55539,3.25791 15.07958,3.83668 1.52419,0.5827 2.96196,1.05802 3.19636,1.05802 0.86947,0 -18.02978,-25.15577 -25.06281,-33.35945 -4.0056,-4.6708 -13.30922,-14.63438 -20.68009,-22.13882 -13.03293,-13.27255 -13.20184,-13.49254 -6.0156,-8.03477 19.67705,14.95127 32.9614,28.27489 51.08938,51.22163 19.56967,24.7826 24.32689,30.33727 33.62528,39.2677 25.49361,24.4801 58.30705,43.01794 93.82055,52.99723 14.28607,4.00953 29.93265,7.51361 33.67635,7.53456 1.62241,0.005 -1.51372,-1.01874 -6.97149,-2.28106 z M 308.06988,475.24837 c 54.18359,-7.10507 89.38546,-42.38418 98.25433,-98.47564 1.87775,-11.87145 1.41682,-35.41529 -0.92579,-47.26709 -9.28921,-46.99213 -38.30655,-75.1557 -86.33705,-83.78889 -17.92764,-3.22255 -80.66848,-2.75246 -84.75002,0.63377 -1.21254,1.00697 -1.41158,17.32922 -1.41158,115.11871 0,62.66881 0.29594,114.23875 0.65997,114.59753 1.37491,1.38017 62.91367,0.70056 74.51014,-0.81839 z"
     style="fill:#30451a;fill-opacity:1;fill-rule:nonzero;stroke:none;stroke-width:1.30944" /></svg>
